<?xml version="1.0" encoding="utf-8"?>
<svg version="1.1" id="Capa_1" xmlns="http://www.w3.org/2000/svg" xmlns:xlink="http://www.w3.org/1999/xlink" x="0px" y="0px"
	 width="2012px" height="70px" viewBox="0 0 2012 70" style="enable-background:new 0 0 2012 70;" xml:space="preserve">
<style type="text/css">
	.st0{fill:#4C091A;}
	.st1{fill:#5B0C1D;}
	.st2{fill:#661020;}
</style>
<polyline class="st0" points="-0.2,70.404 -0.2,0 2013.833,0 2013.833,70.443 "/>
<path class="st1" d="M-0.289,70.141C-0.29,58.103-0.292,49.028-0.293,43.85C160.579,8.659,452.102,0.287,595.408,9.746
	c182.426,12.042,336.774,27.394,497.366,16.035c133.822-9.468,520.941-30.488,919.213-9.935c0.355,11.665,0.647,30.798,0.896,54.544
	"/>
<path class="st2" d="M-1,70.404c0.21-19.522,0.476-34.596,0.798-43.124C98.882,10.565,218.809,2.776,331.485,8.975
	c195.943,10.779,517.879,41.317,698.486,42.251c177.15,0.915,658.563-48.331,983.858-25.407c0.023,9.3,0.043,24.894,0.05,44.585"/>
</svg>
