<?xml version="1.0" encoding="utf-8"?>
<svg version="1.1" id="Capa_1" xmlns="http://www.w3.org/2000/svg" xmlns:xlink="http://www.w3.org/1999/xlink" x="0px" y="0px"
	 width="2012px" height="70px" viewBox="0 0 2012 70" style="enable-background:new 0 0 2012 70;" xml:space="preserve">
<style type="text/css">
	.st0{fill:#4C091A;}
	.st1{fill:#5B0C1D;}
	.st2{fill:#661020;}
</style>
<polyline class="st0" points="2013.862,0.456 2013.862,70 -0.171,70 -0.171,0.001 "/>
<path class="st1" d="M2014.819,0.458c0.231,22.95,0.501,40.698,0.834,50.172c-87.688,6.149-189.969,8.216-313.652,3.971
	c-308.144-10.575-584.221-18.94-844-16.202C599.169,41.127,427.155,54.271,252.714,69.84C175.536,70,6.372,69.608-2,70
	c0-16.334,0-40.955,0-70"/>
<path class="st2" d="M2012.906,0.456c-0.243,19.553-0.54,33.795-0.905,39.893c-255.961,7.385-604.959,0.814-732-9.246
	c-156.855-12.423-608-18.127-766-7.756C392.319,31.334,168.948,56.923-0.411,63.8c-0.3-16.019-0.543-38.134-0.729-63.8"/>
</svg>
