<svg width="640" height="512" viewBox="0 0 640 512" fill="none" xmlns="http://www.w3.org/2000/svg">
<g clip-path="url(#clip0_15_11)">
<path d="M160 320C213.02 320 256 277.02 256 224C256 170.98 213.02 128 160 128C106.1 128 64 170.1 64 224C64 277 106.1 320 160 320ZM160 160C195.29 160 224 188.71 224 224C224 259.29 195.3 288 160 288C124.7 288 96 259.3 96 224C96 188.7 124.7 160 160 160ZM592 0H208C181.5 0 160 21.53 160 48V80C160 88.84 167.2 96 176 96C184.8 96 192 88.84 192 80V48C192 39.19 199.2 32 208 32H592C600.8 32 608 39.19 608 48V368C608 376.812 600.828 384 592 384H352C343.156 384 336 391.156 336 400C336 408.844 343.2 416 352 416H592C618.5 416 640 394.5 640 368V48C640 21.53 618.5 0 592 0ZM192 352H128C57.31 352 0 409.31 0 480C0 497.67 14.33 512 32 512H288C305.67 512 320 497.67 320 480C320 409.3 262.7 352 192 352ZM32 480C32 427.06 75.07 384 128 384H192C244.94 384 288 427.06 288 480H32ZM315.3 164.7C309.05 158.45 298.92 158.45 292.68 164.7C286.44 170.95 286.43 181.08 292.68 187.32L372.68 267.32C375.8 270.4 379.9 272 384 272C388.1 272 392.188 270.438 395.31 267.312L496 166.6V224C496 232.844 503.156 240 512 240C520.844 240 528 232.844 528 224V128C528 119.156 520.844 112 512 112H416C407.156 112 400 119.156 400 128C400 136.844 407.156 144 416 144H473.38L384 233.4L315.3 164.7Z" fill="#661020"/>
</g>
<defs>
<clipPath id="clip0_15_11">
<rect width="640" height="512" fill="white"/>
</clipPath>
</defs>
</svg>
