<svg width="448" height="512" viewBox="0 0 448 512" fill="none" xmlns="http://www.w3.org/2000/svg">
<g clip-path="url(#clip0_15_7)">
<path d="M384 0H64C28.8 0 0 28.8 0 64V384C0 407.63 12.95 428.04 32 439.12V480C32 497.66 46.34 512 64 512H384C401.66 512 416 497.66 416 480V439.12C435 428 448 407.6 448 384V64C448 28.8 419.2 0 384 0ZM384 480H64V448H384V480ZM416 384C416 401.67 401.67 416 384 416H64C46.33 416 32 401.67 32 384V64C32 46.33 46.33 32 64 32H384C401.67 32 416 46.33 416 64V384ZM319.1 64H127.1C91.75 64 63.1 92.65 63.1 128L64 192C64 227.35 92.65 256 127.1 256H319.1C355.3 256 384 227.3 384 192V128C383.1 92.65 355.3 64 319.1 64ZM352 192C352 209.64 337.64 224 320 224H128C110.4 224 96 209.6 96 192V128C96 110.36 110.36 96 128 96H320C337.64 96 352 110.36 352 128V192ZM96 312C82.75 312 72 322.74 72 336C72 349.25 82.75 360 96 360C109.25 360 120 349.25 120 336C120 322.7 109.3 312 96 312ZM368 320H240C231.156 320 224 327.156 224 336C224 344.844 231.156 352 240 352H368C376.844 352 384 344.844 384 336C384 327.156 376.8 320 368 320Z" fill="#661020"/>
</g>
<defs>
<clipPath id="clip0_15_7">
<rect width="448" height="512" fill="white"/>
</clipPath>
</defs>
</svg>
