<svg width="576" height="512" viewBox="0 0 576 512" fill="none" xmlns="http://www.w3.org/2000/svg">
<path d="M540.9 56.77C494.95 40.11 450.67 32.68 411.8 32.02C351.1 32.96 309.1 49.47 288 59.74C266.9 49.47 223.9 32.94 164.8 32C124.8 31.95 80.4 40.35 35.1 56.77C14.18 64.33 0 84.41 0 106.7V409.6C0 424.26 6.875 437.66 18.89 446.4C30.7 454.931 45.53 457.38 59.62 453.181C178.52 416.841 268.92 472.231 273.92 475.371C277.8 477.6 281.2 480 287.1 480C293.62 480 297.22 477.627 301.17 475.422C311.95 468.734 399.47 417.762 515.47 453.152C529.58 457.402 544.33 454.902 556.22 446.34C569.1 437.6 576 424.2 576 409.6V106.7C576 84.42 561.8 64.35 540.9 56.77ZM272 438.1C247.05 426.07 200.99 408.73 141.5 408.73C113.67 408.73 83 412.542 50.31 422.5C45.904 423.844 41.31 423.094 37.62 420.453C34.02 417.8 32 413.1 32 409.6V106.7C32 97.841 37.562 89.87 45.86 86.87C87.66 71.7 127.9 63.95 164.5 64C216.3 64.81 254.2 79.26 272 87.66V438.1ZM544 409.6C544 413.975 541.984 417.834 538.406 420.44C534.64 423.143 530.109 423.862 525.716 422.565C424.1 391.6 341.3 420.4 304 438.3V87.66C321.8 79.26 359.7 64.81 411.4 64C446.71 63.9375 487.74 71.484 530.2 86.88C538.4 89.88 544 97.84 544 106.7V409.6Z" fill="#661020"/>
</svg>
