<svg width="205" height="91" viewBox="0 0 205 91" fill="none" xmlns="http://www.w3.org/2000/svg">
<path fill-rule="evenodd" clip-rule="evenodd" d="M70.926 79.7272C71.3975 79.7272 71.7632 79.7852 72.023 79.8723C72.1866 79.9304 72.3309 80.0464 72.4368 80.2012C72.5426 80.356 72.6004 80.6269 72.6004 80.9945V84.3419C72.6004 85.2029 72.4849 85.8221 72.2732 86.18C72.0519 86.5283 71.7151 86.8089 71.2628 87.0024C70.8202 87.1958 70.2813 87.3023 69.6462 87.3023C69.0978 87.3023 68.6359 87.2152 68.2799 87.0604C67.9142 86.9056 67.6544 86.7025 67.4908 86.4703C67.3369 86.2284 67.2599 85.7447 67.2599 85.0094V80.9849C67.2599 80.5205 67.2887 80.2206 67.3657 80.1045C67.4427 79.9884 67.5582 79.9013 67.7314 79.8336C67.9046 79.7659 68.2221 79.7272 68.6647 79.7272H68.9727V79.5047H62.9009V79.7272C63.4012 79.7272 63.738 79.7659 63.9209 79.8336C64.1133 79.9013 64.2384 79.9884 64.3154 80.1045C64.3924 80.2206 64.4309 80.5108 64.4309 80.9849V85.0094C64.4309 85.6866 64.5848 86.2381 64.8927 86.6347C65.2103 87.0411 65.7395 87.37 66.4901 87.6312C67.0482 87.8247 67.8276 87.9118 68.8476 87.9118C70.0696 87.9118 71.0223 87.7279 71.7247 87.37C72.4271 87.012 72.8698 86.6154 73.0526 86.1994C73.2354 85.764 73.3317 85.0675 73.3317 84.1V80.9849C73.3317 80.6463 73.3701 80.4141 73.4471 80.2883C73.5434 80.0948 73.7069 79.9594 73.9186 79.8626C74.14 79.7756 74.4094 79.7175 74.7462 79.7175H74.9867V79.495H70.926V79.7272Z" fill="white"/>
<path fill-rule="evenodd" clip-rule="evenodd" d="M84.84 82.107C84.6476 81.9716 84.3878 81.8942 84.0702 81.8942C83.6949 81.8942 83.3004 81.9909 82.8963 82.1844C82.4921 82.3779 82.0206 82.7649 81.4818 83.355V82.0683H78.1716V82.2811C78.4507 82.3005 78.6431 82.3392 78.7586 82.3876C78.8645 82.4456 78.951 82.523 79.0088 82.6391C79.0569 82.7358 79.0761 82.939 79.0761 83.2679V86.3928C79.0761 86.8862 79.0088 87.1958 78.8837 87.3118C78.7586 87.4279 78.518 87.4957 78.1716 87.515V87.7278H82.5499V87.515C82.2323 87.5053 82.0014 87.4763 81.8667 87.4183C81.7319 87.3699 81.6357 87.2925 81.5587 87.1764C81.5203 87.1087 81.501 86.9636 81.501 86.7411V86.3928V85.0867C81.501 84.6127 81.5876 84.1773 81.7801 83.7904C81.8955 83.5291 82.0784 83.3357 82.3189 83.2002C82.4633 83.1131 82.6268 83.0648 82.7904 83.0648C82.8674 83.0648 82.9348 83.0744 82.9925 83.1035C83.031 83.1131 83.1657 83.1905 83.387 83.326C83.6083 83.4614 83.8778 83.5388 84.1761 83.5388C84.4455 83.5388 84.6668 83.4614 84.8593 83.3163C85.0517 83.1615 85.1383 82.9487 85.1383 82.6778C85.1287 82.4359 85.0421 82.2424 84.84 82.107Z" fill="white"/>
<path fill-rule="evenodd" clip-rule="evenodd" d="M96.0504 86.5091V82.0686H92.7499V82.2814C93.106 82.3201 93.3465 82.3782 93.462 82.4943C93.5775 82.6007 93.6352 82.8715 93.6352 83.3069V86.335C93.308 86.6543 93.0386 86.8574 92.8077 86.9638C92.6441 87.0412 92.4516 87.0799 92.2496 87.0799C92.086 87.0799 91.9513 87.0509 91.8358 86.9929C91.7107 86.9348 91.6337 86.8477 91.576 86.7316C91.5279 86.6156 91.499 86.3543 91.499 85.948V82.0782H88.1985V82.2911C88.5545 82.3298 88.7951 82.3878 88.9105 82.5039C89.026 82.6103 89.0838 82.8812 89.0838 83.3166V85.561C89.0838 86.2189 89.1511 86.6736 89.2666 86.9348C89.3917 87.196 89.6226 87.4282 89.9786 87.6217C90.3347 87.8152 90.7292 87.9119 91.1911 87.9119C91.6722 87.9119 92.0956 87.8442 92.4805 87.6991C92.8654 87.554 93.2503 87.3121 93.6352 86.9929V87.7475H96.9357V87.5346C96.5797 87.5153 96.3487 87.4379 96.2236 87.3315C96.1082 87.225 96.0504 86.9445 96.0504 86.5091Z" fill="white"/>
<path fill-rule="evenodd" clip-rule="evenodd" d="M107.366 87.3599C106.914 87.1761 106.067 87.0793 104.855 87.0793L103.344 87.0987C102.988 87.0987 102.728 87.0503 102.565 86.9536C102.401 86.8665 102.324 86.7407 102.324 86.5956C102.324 86.4311 102.411 86.2957 102.594 86.1699C102.767 86.0442 102.988 85.9861 103.248 85.9861C103.902 86.0151 104.249 86.0151 104.287 86.0151C104.71 86.0151 105.201 85.9281 105.75 85.7636C106.298 85.5895 106.741 85.3573 107.058 85.067C107.376 84.7671 107.53 84.4189 107.53 84.0125C107.53 83.7707 107.463 83.5482 107.318 83.3353C107.212 83.1709 107.01 82.987 106.731 82.7936H108.29V82.126H105.557C104.99 81.9616 104.431 81.8842 103.893 81.8842C102.873 81.8842 102.045 82.0873 101.4 82.4936C100.756 82.9 100.428 83.374 100.428 83.9351C100.428 84.3608 100.602 84.7381 100.948 85.0574C101.294 85.3766 101.853 85.6378 102.642 85.841C101.978 86.0345 101.487 86.2667 101.179 86.5279C100.871 86.7891 100.717 87.0503 100.717 87.3405C100.717 87.8049 101.092 88.1629 101.843 88.4144C101.294 88.5208 100.929 88.6466 100.727 88.7917C100.525 88.9368 100.428 89.111 100.428 89.2948C100.428 89.4883 100.563 89.6721 100.813 89.8559C101.073 90.03 101.506 90.1655 102.112 90.2719C102.719 90.3686 103.383 90.417 104.114 90.417C105.086 90.417 105.942 90.3203 106.693 90.1268C107.183 89.9913 107.588 89.7882 107.886 89.4979C108.184 89.2174 108.338 88.9078 108.338 88.5595C108.348 88.0274 108.011 87.6211 107.366 87.3599ZM103.219 82.6291C103.45 82.3969 103.739 82.2808 104.066 82.2808C104.403 82.2808 104.662 82.3776 104.845 82.571C105.105 82.8419 105.24 83.3257 105.24 84.0512C105.24 84.6897 105.124 85.1251 104.884 85.3379C104.653 85.5604 104.364 85.6669 104.018 85.6669C103.7 85.6669 103.44 85.5604 103.209 85.3379C102.978 85.1154 102.873 84.6994 102.873 84.0996C102.873 83.3547 102.988 82.871 103.219 82.6291ZM106.24 89.7785C105.779 89.9333 105.153 90.001 104.335 90.001C103.392 90.001 102.747 89.9139 102.401 89.7495C102.064 89.5753 101.891 89.3915 101.891 89.1884C101.891 88.9658 102.055 88.8014 102.382 88.6756C102.574 88.6079 102.969 88.5692 103.556 88.5692C104.922 88.5692 105.769 88.5982 106.077 88.6369C106.394 88.6853 106.635 88.7627 106.789 88.8981C106.876 88.9658 106.914 89.0432 106.914 89.1497C106.924 89.4109 106.693 89.6237 106.24 89.7785Z" fill="white"/>
<path fill-rule="evenodd" clip-rule="evenodd" d="M119.241 86.5091V82.0686H115.95V82.2814C116.306 82.3201 116.537 82.3782 116.662 82.4943C116.777 82.6007 116.835 82.8715 116.835 83.3069V86.335C116.508 86.6543 116.238 86.8574 116.007 86.9638C115.844 87.0412 115.661 87.0799 115.449 87.0799C115.295 87.0799 115.161 87.0509 115.045 86.9929C114.93 86.9348 114.843 86.8477 114.785 86.7316C114.728 86.6156 114.699 86.3543 114.699 85.948V82.0782H111.398V82.2911C111.764 82.3298 111.995 82.3878 112.11 82.5039C112.226 82.6103 112.283 82.8812 112.283 83.3166V85.561C112.283 86.2189 112.341 86.6736 112.466 86.9348C112.591 87.196 112.832 87.4282 113.178 87.6217C113.534 87.8152 113.929 87.9119 114.391 87.9119C114.872 87.9119 115.305 87.8442 115.68 87.6991C116.065 87.554 116.46 87.3121 116.845 86.9929V87.7475H120.135V87.5346C119.779 87.5153 119.548 87.4379 119.433 87.3315C119.308 87.225 119.241 86.9445 119.241 86.5091Z" fill="white"/>
<path fill-rule="evenodd" clip-rule="evenodd" d="M130.806 87.0413C130.739 87.0413 130.662 87.0219 130.604 86.9929C130.547 86.9639 130.508 86.9058 130.479 86.8478C130.45 86.7801 130.441 86.6156 130.441 86.3641V84.1583C130.441 83.5488 130.402 83.1618 130.316 82.9877C130.181 82.7265 129.892 82.4749 129.45 82.2524C128.997 82.0202 128.391 81.9041 127.631 81.9041C126.986 81.9041 126.38 81.9815 125.793 82.117C125.206 82.2524 124.744 82.4653 124.417 82.7265C124.09 82.9877 123.926 83.2682 123.926 83.5681C123.926 83.7713 124.051 83.9551 124.292 84.1002C124.533 84.255 124.841 84.3324 125.206 84.3324C125.543 84.3324 125.822 84.2647 126.034 84.1196C126.245 83.9841 126.351 83.81 126.351 83.6165C126.351 83.452 126.245 83.2876 126.024 83.1038C125.861 82.978 125.774 82.8813 125.774 82.7942C125.774 82.6974 125.851 82.6104 126.005 82.533C126.255 82.4169 126.553 82.3588 126.929 82.3588C127.16 82.3588 127.362 82.3975 127.544 82.4749C127.727 82.562 127.862 82.6588 127.92 82.7748C127.987 82.8909 128.016 83.1521 128.016 83.5875V84.1486C126.236 84.7291 125.081 85.1838 124.552 85.5321C124.013 85.8803 123.753 86.2673 123.753 86.7027C123.753 87.0219 123.907 87.2831 124.215 87.496C124.513 87.7088 124.898 87.8152 125.36 87.8152C126.14 87.8152 127.025 87.5153 128.016 86.8961C128.074 87.2057 128.237 87.4282 128.497 87.583C128.757 87.7378 129.113 87.8055 129.575 87.8055C129.969 87.8055 130.316 87.7378 130.633 87.6024C130.941 87.4669 131.239 87.2444 131.528 86.9445L131.268 86.7994C131.114 86.9639 130.96 87.0413 130.806 87.0413ZM128.016 86.4608C127.641 86.6833 127.304 86.7897 127.025 86.7897C126.765 86.7897 126.563 86.7414 126.419 86.6253C126.226 86.4898 126.13 86.3254 126.13 86.1415C126.13 85.919 126.245 85.6965 126.467 85.4837C126.803 85.1547 127.323 84.8548 128.016 84.5646V86.4608Z" fill="white"/>
<path fill-rule="evenodd" clip-rule="evenodd" d="M140.073 82.2814C140.429 82.2911 140.679 82.3395 140.824 82.4265C140.968 82.5136 141.035 82.6394 141.035 82.7942C141.035 83.0263 140.862 83.4617 140.516 84.0712L139.573 85.7932L138.187 83.5681C137.899 83.1134 137.754 82.8038 137.754 82.649C137.754 82.5523 137.812 82.4652 137.927 82.3975C138.043 82.3298 138.245 82.2911 138.524 82.2814V82.0686H134.213V82.2814C134.473 82.3395 134.704 82.4362 134.896 82.5813C135.079 82.7361 135.377 83.1231 135.762 83.7616L138.38 87.9797L138.12 88.444C137.812 89.0535 137.543 89.4405 137.312 89.605C137.158 89.721 137.013 89.7888 136.869 89.7888C136.782 89.7888 136.715 89.7597 136.676 89.7211C136.628 89.6727 136.6 89.5759 136.59 89.4211C136.58 89.1599 136.494 88.9568 136.32 88.8213C136.147 88.6956 135.907 88.6278 135.618 88.6278C135.32 88.6278 135.07 88.7052 134.867 88.86C134.665 89.0051 134.56 89.1986 134.56 89.4405C134.56 89.7114 134.714 89.9436 135.002 90.137C135.3 90.3209 135.685 90.4176 136.166 90.4176C136.763 90.4176 137.263 90.2435 137.668 89.9145C137.947 89.6727 138.38 89.0245 138.967 87.97L141.286 83.7616C141.68 83.0457 141.969 82.62 142.123 82.4943C142.296 82.3685 142.508 82.3008 142.777 82.2814V82.0686H140.073V82.2814Z" fill="white"/>
<path fill-rule="evenodd" clip-rule="evenodd" d="M8.70687 66.7728C9.20724 66.7728 9.60177 66.8115 9.8712 66.9082C10.0444 66.9663 10.1887 67.0727 10.3042 67.2275C10.4197 67.3823 10.4774 67.6532 10.4774 68.0208V71.3198C10.4774 72.1905 10.3619 72.7806 10.131 73.1289C9.89044 73.4772 9.54403 73.7481 9.08215 73.9416C8.61065 74.1447 8.04292 74.2415 7.37897 74.2415C6.80162 74.2415 6.3205 74.1641 5.94522 74.0093C5.56032 73.8545 5.29089 73.661 5.12731 73.4288C4.9541 73.187 4.8675 72.7129 4.8675 71.9873V68.0208C4.8675 67.5564 4.90599 67.2565 4.98297 67.1404C5.05995 67.0243 5.18504 66.9373 5.35825 66.8599C5.54107 66.7922 5.86824 66.7631 6.33974 66.7631H6.65728V66.5503H0.325684V66.7631C0.845298 66.7631 1.20133 66.7825 1.39378 66.8599C1.59585 66.9276 1.72095 67.0243 1.79792 67.1404C1.8749 67.2565 1.92302 67.5468 1.92302 68.0208V71.9873C1.92302 72.6549 2.0866 73.1966 2.40414 73.5933C2.73131 73.9899 3.28941 74.3189 4.07846 74.5801C4.66543 74.7639 5.48334 74.8606 6.55144 74.8606C7.82161 74.8606 8.82234 74.6865 9.56328 74.3285C10.2946 73.9706 10.7661 73.5933 10.9585 73.1676C11.151 72.7516 11.2376 72.055 11.2376 71.1069V68.0305C11.2376 67.7015 11.2761 67.4694 11.3531 67.3339C11.4589 67.1501 11.6225 67.005 11.8534 66.9179C12.0844 66.8212 12.373 66.7825 12.7195 66.7825H12.9696V66.5696H8.70687V66.7728Z" fill="white"/>
<path fill-rule="evenodd" clip-rule="evenodd" d="M24.1412 66.7731C24.8244 66.7635 25.3152 66.8699 25.6039 67.1021C25.8156 67.2859 25.9214 67.6051 25.9214 68.0985V71.5813L19.8689 66.5603H15.5002V66.7731C15.8755 66.7828 16.1642 66.8118 16.3663 66.8892C16.5683 66.957 16.7993 67.1021 17.0591 67.3246L17.3285 67.5374V73.2453C17.3285 73.6807 17.1938 73.9903 16.9244 74.1741C16.6549 74.3579 16.1931 74.445 15.5195 74.445V74.6675H19.8689V74.445H19.5706C19.1568 74.445 18.7815 74.3676 18.464 74.2031C18.1368 74.0386 17.9828 73.7194 17.9828 73.2453V68.0889L26.2871 74.8513H26.595V68.0985C26.595 67.7212 26.6431 67.4407 26.7489 67.2859C26.8548 67.1214 26.9991 67.0053 27.1723 66.9473C27.3552 66.8796 27.7016 66.8215 28.2212 66.7731V66.5603H24.1509V66.7731H24.1412Z" fill="white"/>
<path fill-rule="evenodd" clip-rule="evenodd" d="M31.0024 66.7728H31.4066C31.7626 66.7728 32.032 66.8115 32.2341 66.8889C32.4362 66.9663 32.5709 67.063 32.6383 67.1598C32.7056 67.2565 32.7441 67.5274 32.7441 67.9434V73.2837C32.7441 73.69 32.7152 73.9416 32.6383 74.0383C32.5517 74.1737 32.4362 74.2705 32.2726 74.3285C32.0513 74.4059 31.7626 74.4446 31.4066 74.4446H31.0024V74.6671H37.4303V74.4446H37.0261C36.6797 74.4446 36.4103 74.4059 36.2082 74.3285C36.0061 74.2511 35.8714 74.1544 35.8041 74.0577C35.7367 73.9512 35.6982 73.69 35.6982 73.274V67.9337C35.6982 67.5274 35.7367 67.2662 35.7944 67.1791C35.8907 67.0437 36.0158 66.9469 36.1697 66.8889C36.3814 66.8018 36.6797 66.7631 37.0261 66.7631H37.4303V66.5503H31.0024V66.7728Z" fill="white"/>
<path fill-rule="evenodd" clip-rule="evenodd" d="M48.9674 66.7728C49.4004 66.7728 49.7372 66.8115 49.997 66.8696C50.1894 66.9179 50.3338 66.9856 50.4204 67.0824C50.5262 67.1695 50.5647 67.2759 50.5647 67.392C50.5647 67.4984 50.5262 67.6242 50.4685 67.7693C50.4011 67.9144 50.2279 68.2046 49.9296 68.64L47.5047 72.2389L44.8778 68.2046C44.5988 67.7789 44.4448 67.5177 44.3871 67.421C44.3389 67.3242 44.3197 67.2372 44.3197 67.1598C44.3197 67.0437 44.3871 66.9566 44.5218 66.8986C44.7142 66.8115 45.0799 66.7728 45.6091 66.7728H45.8112V66.56H39.9126V66.7728C40.3841 66.8115 40.7113 66.8889 40.8941 67.0243C41.0673 67.1598 41.4041 67.6242 41.9141 68.4078L46.1191 74.851H46.4366L50.6705 68.6593C51.1805 67.9144 51.5462 67.4403 51.806 67.2372C52.162 66.9663 52.5566 66.8212 53.0088 66.7631V66.5503H48.977V66.7728H48.9674Z" fill="white"/>
<path fill-rule="evenodd" clip-rule="evenodd" d="M57.1274 74.0385C57.0408 74.1739 56.9253 74.2707 56.7617 74.3287C56.5404 74.4061 56.2517 74.4448 55.8957 74.4448H55.4819V74.6673H66.1244L66.6729 72.0842H66.3361C66.0378 72.8002 65.5374 73.3322 64.835 73.6805C64.1422 74.0288 63.2184 74.2029 62.0733 74.2029H61.3324C60.986 74.2029 60.7262 74.1739 60.5626 74.1062C60.4086 74.0385 60.3028 73.9611 60.2451 73.8643C60.1873 73.7579 60.1585 73.487 60.1585 73.042V70.7685C60.7454 70.7685 61.1977 70.8169 61.5152 70.9233C61.8232 71.0297 62.0926 71.2232 62.3332 71.5231C62.5641 71.8134 62.7277 72.2003 62.795 72.655H63.1511V68.3983H62.795C62.6988 69.0271 62.4775 69.5108 62.1215 69.8301C61.7654 70.159 61.1977 70.3235 60.4183 70.3235H60.1777V67.0245H61.4671C62.3909 67.0245 63.026 67.0632 63.3724 67.1309C63.9497 67.2567 64.402 67.4405 64.7195 67.7017C65.0274 67.9533 65.2776 68.3789 65.4508 68.9691H65.8069V66.5698H55.4916V66.7827H55.9053C56.2998 66.7827 56.6174 66.8407 56.8483 66.9471C57.0119 67.0245 57.1274 67.1309 57.1851 67.2664C57.214 67.3534 57.2332 67.576 57.2332 67.9533V73.2936C57.2332 73.6902 57.1947 73.9417 57.1274 74.0385Z" fill="white"/>
<path fill-rule="evenodd" clip-rule="evenodd" d="M74.5535 74.0773C74.4766 73.9612 74.4285 73.6904 74.4285 73.2453V70.9622H75.2367L79.1916 74.6675H83.0694V74.445C82.7327 74.4353 82.4536 74.3676 82.2034 74.2418C82.0398 74.1547 81.7704 73.9322 81.3759 73.5839L78.441 70.8267C79.182 70.701 79.7689 70.5171 80.1827 70.2753C80.837 69.8883 81.1642 69.3949 81.1642 68.7951C81.1642 68.3017 80.9429 67.876 80.5099 67.5084C80.0769 67.1504 79.5188 66.8989 78.8259 66.7635C78.1427 66.628 77.0458 66.5603 75.5639 66.5603H69.8481V66.7731C70.4159 66.7731 70.8008 66.8118 71.0028 66.8699C71.2145 66.9376 71.3589 67.0247 71.4359 67.1408C71.5128 67.2569 71.5609 67.5374 71.5609 67.9631V73.2453C71.5609 73.6904 71.5225 73.9612 71.4359 74.0773C71.3493 74.1934 71.2145 74.2805 71.0125 74.3482C70.8104 74.4159 70.4255 74.4546 69.8481 74.4546V74.6771H76.1605V74.4546C75.6024 74.4546 75.2079 74.4256 74.9962 74.3579C74.7845 74.2902 74.6498 74.1934 74.5535 74.0773ZM74.4381 67.015H75.4099C76.3818 67.015 77.0843 67.1601 77.5269 67.46C77.9695 67.7503 78.1812 68.205 78.1812 68.8241C78.1812 69.2498 78.0658 69.5884 77.8252 69.8593C77.5846 70.1205 77.2575 70.3043 76.8437 70.4011C76.4203 70.5075 75.7948 70.5558 74.9577 70.5558H74.4381V67.015Z" fill="white"/>
<path fill-rule="evenodd" clip-rule="evenodd" d="M90.1517 74.8513C91.393 74.8513 92.4033 74.6094 93.2116 74.1257C94.0103 73.642 94.4241 73.0519 94.4241 72.3843C94.4241 71.8522 94.1739 71.3782 93.6735 70.9622C93.1731 70.5462 92.2109 70.1108 90.7675 69.6368C89.7379 69.2982 89.0836 69.0757 88.7949 68.9402C88.41 68.7564 88.1213 68.5726 87.9481 68.3791C87.8134 68.2437 87.7557 68.0792 87.7557 67.9051C87.7557 67.6245 87.9385 67.373 88.2945 67.1505C88.6506 66.9376 89.1413 66.8215 89.7571 66.8215C90.5558 66.8215 91.3064 67.0247 91.9896 67.4407C92.6824 67.8567 93.1154 68.3985 93.2886 69.0757H93.6639L93.558 66.3668H93.279C93.202 66.6184 93.1058 66.7635 93.0192 66.8312C92.9326 66.8989 92.8075 66.9279 92.6439 66.9279C92.4803 66.9279 92.2013 66.8602 91.7875 66.7345C91.3833 66.6087 91.0273 66.5216 90.7483 66.4636C90.373 66.3959 89.9881 66.3668 89.5936 66.3668C88.4966 66.3668 87.5921 66.5893 86.8704 67.0537C86.1583 67.5084 85.7927 68.0599 85.7927 68.6984C85.7927 69.0757 85.9274 69.4239 86.1776 69.7335C86.4374 70.0528 86.8223 70.3333 87.3034 70.5946C87.7942 70.8461 88.6024 71.1557 89.7187 71.5136C90.5173 71.7748 91.0754 71.978 91.393 72.1425C91.7105 72.3069 91.9415 72.4714 92.0954 72.6552C92.2494 72.839 92.336 73.0132 92.336 73.2163C92.336 73.5356 92.1339 73.8258 91.7298 74.058C91.3256 74.2999 90.7868 74.4256 90.1036 74.4256C89.2279 74.4256 88.4004 74.1934 87.6402 73.7387C86.88 73.2937 86.37 72.6262 86.1006 71.7748H85.7734V74.8416H86.1006C86.2064 74.6772 86.3508 74.5514 86.524 74.474C86.6972 74.3966 86.8704 74.3579 87.0244 74.3579C87.2072 74.3579 87.4477 74.3966 87.7364 74.474C88.2657 74.6191 88.6987 74.7159 89.0451 74.7739C89.4011 74.832 89.7668 74.8513 90.1517 74.8513Z" fill="white"/>
<path fill-rule="evenodd" clip-rule="evenodd" d="M99.091 74.0383C99.0044 74.1737 98.8793 74.2705 98.7253 74.3285C98.504 74.4059 98.2154 74.4446 97.8593 74.4446H97.4456V74.6671H103.873V74.4446H103.469C103.123 74.4446 102.853 74.4059 102.651 74.3285C102.459 74.2511 102.315 74.1544 102.247 74.0577C102.18 73.9512 102.141 73.69 102.141 73.274V67.9337C102.141 67.5274 102.18 67.2662 102.238 67.1791C102.334 67.0437 102.459 66.9469 102.613 66.8889C102.834 66.8018 103.113 66.7631 103.469 66.7631H103.873V66.5503H97.4456V66.7631H97.8593C98.2057 66.7631 98.4752 66.8018 98.6772 66.8792C98.8793 66.9566 99.014 67.0534 99.0814 67.1501C99.1487 67.2469 99.1776 67.5177 99.1776 67.9337V73.274C99.1872 73.69 99.1584 73.9416 99.091 74.0383Z" fill="white"/>
<path fill-rule="evenodd" clip-rule="evenodd" d="M108.117 74.0385C108.03 74.1739 107.886 74.2707 107.694 74.3481C107.501 74.4158 107.232 74.4545 106.866 74.4545H106.452V74.677H111.966C112.755 74.677 113.342 74.648 113.717 74.5996C114.554 74.5029 115.257 74.3481 115.834 74.1642C116.412 73.9708 116.922 73.7192 117.364 73.4193C117.807 73.1001 118.163 72.7034 118.442 72.2294C118.721 71.7456 118.856 71.2232 118.856 70.6524C118.856 69.8301 118.577 69.0852 118.009 68.4273C117.441 67.7791 116.614 67.2857 115.507 66.9665C114.612 66.7053 113.429 66.5698 111.956 66.5698H106.443V66.7827H106.856C107.203 66.7827 107.482 66.8214 107.684 66.8988C107.886 66.9761 108.021 67.0729 108.088 67.1696C108.155 67.2664 108.184 67.5373 108.184 67.9533V73.2935C108.194 73.7095 108.165 73.9611 108.117 74.0385ZM111.148 67.0148C112.168 67.0148 112.899 67.0729 113.332 67.1987C113.958 67.3728 114.458 67.7017 114.853 68.1951C115.353 68.8143 115.603 69.6463 115.603 70.6815C115.603 71.9682 115.238 72.9259 114.516 73.5354C113.977 73.9998 113.198 74.2223 112.187 74.2223C111.87 74.2223 111.639 74.2029 111.475 74.1352C111.36 74.0965 111.273 74.0385 111.225 73.9611C111.177 73.8837 111.148 73.6805 111.148 73.3419V67.0148Z" fill="white"/>
<path fill-rule="evenodd" clip-rule="evenodd" d="M130.095 74.3192C129.903 74.416 129.566 74.4547 129.085 74.4547H128.844V74.6675H134.791V74.4547C134.415 74.445 134.127 74.3676 133.915 74.2418C133.636 74.0774 133.299 73.6807 132.866 73.0422L128.43 66.3959H128.267L123.86 72.8681C123.446 73.4872 123.099 73.9032 122.811 74.1064C122.522 74.2999 122.156 74.4256 121.723 74.4643V74.6772H125.813V74.4643C125.168 74.4353 124.774 74.387 124.601 74.3289C124.321 74.2128 124.177 74.0483 124.177 73.8162C124.177 73.642 124.264 73.4292 124.437 73.1583L124.976 72.365H129.277L129.941 73.3711C130.114 73.642 130.21 73.7871 130.21 73.8258C130.249 73.9032 130.268 73.9806 130.268 74.0483C130.297 74.1644 130.23 74.2612 130.095 74.3192ZM125.293 71.9103L127.17 69.1337L128.998 71.9103H125.293Z" fill="white"/>
<path fill-rule="evenodd" clip-rule="evenodd" d="M146.261 66.957C145.366 66.6957 144.172 66.5603 142.71 66.5603H137.187V66.7731H137.6C137.947 66.7731 138.216 66.8118 138.428 66.8892C138.63 66.9666 138.765 67.0634 138.832 67.1601C138.899 67.2569 138.928 67.5277 138.928 67.9437V73.284C138.928 73.7 138.899 73.9612 138.851 74.0386C138.755 74.1741 138.62 74.2708 138.428 74.3482C138.245 74.4159 137.966 74.4546 137.6 74.4546H137.187V74.6771H142.71C143.499 74.6771 144.086 74.6481 144.452 74.5998C145.289 74.503 146.001 74.3482 146.578 74.1644C147.155 73.9709 147.665 73.7194 148.108 73.4195C148.551 73.1002 148.907 72.7036 149.186 72.2295C149.465 71.7458 149.6 71.2234 149.6 70.6526C149.6 69.8303 149.311 69.0853 148.743 68.4275C148.185 67.7696 147.358 67.2762 146.261 66.957ZM145.231 73.5356C144.702 73.9999 143.922 74.2225 142.902 74.2225C142.594 74.2225 142.354 74.1934 142.19 74.1354C142.075 74.0967 141.988 74.0386 141.94 73.9612C141.892 73.8838 141.863 73.6807 141.863 73.3421V67.015C142.873 67.015 143.605 67.073 144.038 67.1988C144.654 67.373 145.164 67.7019 145.568 68.1953C146.058 68.8144 146.309 69.6464 146.309 70.6816C146.328 71.9683 145.962 72.9164 145.231 73.5356Z" fill="white"/>
<path fill-rule="evenodd" clip-rule="evenodd" d="M174.089 67.5664C172.867 66.7731 171.27 66.3861 169.316 66.4345C167.507 66.3861 165.977 66.7634 164.736 67.5664C163.495 68.3694 162.869 69.3755 162.869 70.5752C162.869 71.649 163.36 72.5681 164.313 73.3614C165.515 74.3482 167.228 74.8416 169.441 74.8416C171.645 74.8416 173.358 74.3289 174.56 73.2937C175.475 72.5101 175.927 71.6007 175.927 70.5752C175.927 69.3755 175.321 68.3791 174.089 67.5664ZM172.213 72.8777C171.914 73.4388 171.501 73.8451 170.971 74.0967C170.558 74.2998 170.038 74.3966 169.412 74.3966C168.489 74.3966 167.767 74.1644 167.247 73.7C166.506 73.0422 166.141 72.0263 166.141 70.6332C166.141 69.4723 166.381 68.5822 166.853 67.9534C167.44 67.1988 168.287 66.8215 169.422 66.8215C170.028 66.8215 170.567 66.9279 171.039 67.1504C171.501 67.3729 171.885 67.7406 172.193 68.2727C172.501 68.8047 172.646 69.6077 172.646 70.6719C172.665 71.591 172.511 72.3166 172.213 72.8777Z" fill="white"/>
<path fill-rule="evenodd" clip-rule="evenodd" d="M190.447 73.5839L187.502 70.8267C188.243 70.701 188.83 70.5171 189.254 70.2753C189.898 69.8883 190.225 69.3949 190.225 68.7951C190.225 68.3017 190.004 67.876 189.571 67.5084C189.138 67.1504 188.58 66.8989 187.887 66.7635C187.194 66.628 186.107 66.5603 184.625 66.5603H178.909V66.7731C179.468 66.7731 179.862 66.8118 180.064 66.8699C180.266 66.9376 180.42 67.0247 180.497 67.1408C180.574 67.2569 180.613 67.5374 180.613 67.9631V73.2453C180.613 73.6904 180.574 73.9612 180.497 74.0773C180.42 74.1934 180.276 74.2805 180.064 74.3482C179.862 74.4159 179.477 74.4546 178.909 74.4546V74.6771H185.222V74.4546C184.654 74.4546 184.269 74.4256 184.067 74.3579C183.865 74.2902 183.711 74.1934 183.634 74.0773C183.557 73.9612 183.519 73.6904 183.519 73.2453V70.9622H184.317L188.272 74.6675H192.14V74.445C191.813 74.4353 191.525 74.3676 191.274 74.2418C191.111 74.1547 190.841 73.9322 190.447 73.5839ZM186.896 69.8496C186.656 70.1108 186.328 70.2946 185.915 70.3914C185.501 70.4978 184.866 70.5462 184.029 70.5462H183.519V67.015H184.481C185.453 67.015 186.155 67.1601 186.588 67.46C187.031 67.7503 187.243 68.205 187.243 68.8241C187.252 69.2401 187.127 69.5787 186.896 69.8496Z" fill="white"/>
<path fill-rule="evenodd" clip-rule="evenodd" d="M193.921 66.5603V68.7564H194.267C194.411 68.1566 194.739 67.6922 195.268 67.373C195.633 67.1408 196.24 67.0247 197.077 67.0247H197.952V73.284C197.952 73.6904 197.924 73.9419 197.856 74.0386C197.77 74.1741 197.645 74.2708 197.491 74.3289C197.279 74.4063 196.99 74.445 196.634 74.445H196.22V74.6675H202.648V74.445H202.244C201.898 74.445 201.619 74.4063 201.426 74.3289C201.224 74.2515 201.08 74.1547 201.012 74.058C200.945 73.9516 200.907 73.6904 200.907 73.2744V67.0247H201.821C202.398 67.0247 202.802 67.0634 203.033 67.1311C203.447 67.2665 203.774 67.4407 204.005 67.6632C204.236 67.8857 204.457 68.2533 204.65 68.7661H204.977V66.57H193.921V66.5603Z" fill="white"/>
<path fill-rule="evenodd" clip-rule="evenodd" d="M172.905 0.290293H128.892V4.08267C125.293 0.474107 116.441 0.328992 116.441 0.328992H92.4421V12.0931C85.8603 3.51188 77.2963 6.10352e-05 66.1053 6.10352e-05C49.1986 6.10352e-05 34.3704 13.8442 34.3704 31.0066C34.3704 48.1787 48.9773 60.978 65.884 60.978C77.0654 60.978 86.2837 56.2375 92.5287 49.1752V60.5233H110.061V40.9809L124.899 60.5426H159.848V15.663H172.915V0.290293H172.905ZM63.6324 15.1696C63.6131 15.1986 63.5939 15.2276 63.5746 15.2566C63.0646 16.0596 62.2948 17.2496 61.7175 18.9426C60.9669 18.8555 60.1875 18.7394 59.3888 18.6137C61.4192 16.1273 62.978 15.3824 63.6324 15.1696ZM60.0432 31.2388C60.072 32.9608 60.1779 34.5958 60.3703 36.105C59.0136 36.2888 57.6568 36.521 56.3385 36.8016C55.7997 35.0989 55.5014 33.2317 55.4532 31.2388H60.0432ZM55.4532 30.0682C55.5014 28.2591 55.7515 26.5177 56.1942 24.9117C57.5221 25.231 58.8981 25.4825 60.303 25.6857C60.149 27.0788 60.0624 28.559 60.0528 30.0779H55.4532V30.0682ZM60.5339 37.266C60.7745 38.7558 61.1016 40.1296 61.5058 41.3679C60.659 41.4647 59.7737 41.6001 58.8788 41.7452C58.0032 40.594 57.2815 39.3073 56.733 37.9142C57.9743 37.6433 59.2541 37.4304 60.5339 37.266ZM60.4377 24.5151C59.1194 24.3313 57.8108 24.0797 56.5406 23.7798C57.0506 22.2996 57.7434 20.9162 58.5998 19.6585C59.5524 19.823 60.4858 19.9487 61.3615 20.0648C60.9669 21.4579 60.659 22.9478 60.4377 24.5151ZM60.4088 15.9629C59.6968 16.582 58.8307 17.3753 58.0706 18.3912C57.5413 18.3041 57.0217 18.1977 56.5213 18.1009C57.5991 17.2786 58.9462 16.3789 60.4088 15.9629ZM54.924 19.4457C55.0683 19.3102 55.2127 19.1748 55.357 19.0393C55.7227 19.1264 56.4155 19.2715 57.3296 19.4457C56.5213 20.6937 55.867 22.0578 55.3763 23.5089C54.058 23.151 53.0572 22.8124 52.4125 22.5802C53.115 21.4289 53.9618 20.3841 54.924 19.4457ZM51.8352 23.6057C52.4125 23.8282 53.5191 24.2055 55.0491 24.6215C54.5776 26.3242 54.3178 28.1527 54.2793 30.0682H50.1897C50.2475 27.7947 50.8056 25.6276 51.8352 23.6057ZM50.209 31.2388H54.2793C54.3274 33.3188 54.6353 35.273 55.1934 37.0628C53.6827 37.4304 52.6242 37.7884 52.1431 37.9432C50.9884 35.9019 50.3245 33.5897 50.209 31.2388ZM54.924 41.5324C54.1157 40.7584 53.394 39.9071 52.7782 38.9783C53.3074 38.8042 54.2697 38.4946 55.5783 38.185C56.0979 39.5491 56.7715 40.8165 57.5991 41.9774C56.8196 42.1225 56.2134 42.2483 55.8189 42.3354C55.4821 42.0451 55.1934 41.7839 54.924 41.5324ZM57.0602 43.2641C57.4259 43.1964 57.8781 43.1093 58.3977 43.0223C59.0039 43.7382 59.6583 44.4057 60.3607 45.0055C59.1964 44.5508 58.0898 43.9607 57.0602 43.2641ZM63.3244 45.615C63.0165 45.4409 62.4295 45.1023 61.9965 44.7927C61.1979 44.2219 60.4473 43.5447 59.7545 42.7997C60.5147 42.6837 61.2267 42.5772 61.9099 42.4998C62.545 44.0961 63.2186 45.1603 63.7575 45.8278C63.5939 45.7504 63.4303 45.6634 63.3244 45.615ZM65.8167 46.0697C65.3933 45.8956 64.2771 45.0442 63.1224 42.3644C64.0846 42.2773 64.9891 42.229 65.8167 42.2096V46.0697ZM65.8167 41.0487C64.8737 41.068 63.8248 41.1261 62.6894 41.2325C62.2756 40.0232 61.9388 38.6397 61.6982 37.1305C63.0743 36.9854 64.4503 36.8983 65.8167 36.879V41.0487ZM65.8167 35.7084C64.3925 35.7374 62.9492 35.8245 61.5347 35.9696C61.3518 34.5088 61.246 32.9221 61.2267 31.2388H65.8167V35.7084ZM65.8167 30.0682H61.2267C61.2364 28.6073 61.323 27.1755 61.4673 25.8308C62.9011 25.9953 64.3733 26.0823 65.8167 26.1017V30.0682ZM65.8167 24.9311C64.4214 24.9117 63.0069 24.815 61.6116 24.6602C61.8426 23.0929 62.1601 21.5837 62.5643 20.2099C63.7382 20.326 64.8256 20.3938 65.807 20.4034V24.9311H65.8167ZM65.8167 19.2425C64.941 19.2232 63.9788 19.1651 62.9492 19.0684C63.9114 16.495 65.0276 15.2566 65.8167 14.918V19.2425ZM77.8544 19.4457C78.8167 20.3841 79.6634 21.4289 80.3563 22.5705C79.7115 22.8124 78.7108 23.151 77.3829 23.4993C76.8922 22.0578 76.2378 20.6937 75.4295 19.436C76.3437 19.2618 77.0365 19.1167 77.4118 19.0297C77.5657 19.1748 77.7101 19.3102 77.8544 19.4457ZM76.0358 37.9142C75.4873 39.3073 74.7656 40.594 73.8803 41.7452C72.9854 41.6001 72.1098 41.4743 71.2534 41.3679C71.6575 40.1296 71.9847 38.7462 72.2252 37.266C73.5243 37.4304 74.8041 37.6433 76.0358 37.9142ZM71.417 20.0745C72.3022 19.9681 73.2356 19.8326 74.1786 19.6682C75.035 20.9259 75.7278 22.3093 76.2475 23.7895C74.9773 24.0894 73.6686 24.3313 72.3503 24.5247C72.1194 22.9478 71.8115 21.4579 71.417 20.0745ZM72.4081 36.105C72.5909 34.5958 72.7064 32.9512 72.7352 31.2388H77.3252C77.2771 33.2317 76.9788 35.0989 76.4399 36.8016C75.1216 36.5114 73.7649 36.2888 72.4081 36.105ZM72.7352 30.0682C72.7256 28.5493 72.639 27.0788 72.4851 25.676C73.8803 25.4728 75.2563 25.2213 76.5842 24.902C77.0269 26.508 77.2771 28.2494 77.3155 30.0585H72.7352V30.0682ZM76.2475 18.0912C75.7567 18.1977 75.2275 18.2944 74.7079 18.3815C73.9477 17.3753 73.0816 16.582 72.3792 15.9532C73.8322 16.3789 75.1794 17.2786 76.2475 18.0912ZM73.3896 18.6137C72.5909 18.7394 71.8115 18.8555 71.0513 18.9426C70.4836 17.2496 69.7138 16.0596 69.1942 15.2566C69.1749 15.2276 69.1557 15.1986 69.1364 15.1696C69.7908 15.3824 71.3496 16.1273 73.3896 18.6137ZM66.9617 14.9277C67.7604 15.2566 68.8766 16.495 69.8389 19.078C68.7996 19.1748 67.8374 19.2328 66.9617 19.2522V14.9277ZM66.9617 20.4131C67.9432 20.4034 69.0306 20.3357 70.2045 20.2196C70.6183 21.5934 70.9358 23.1026 71.1572 24.6699C69.7619 24.8246 68.357 24.9214 66.9521 24.9407V20.4131H66.9617ZM66.9617 26.1017C68.4147 26.0823 69.8774 25.9856 71.3111 25.8308C71.4651 27.1852 71.542 28.6073 71.5613 30.0682H66.9617V26.1017ZM66.9617 31.2388H71.5517C71.5324 32.9221 71.4266 34.5184 71.2438 35.9696C69.8196 35.8245 68.3763 35.7374 66.9617 35.7084V31.2388ZM66.9617 36.879C68.3281 36.8983 69.7042 36.9854 71.0898 37.1305C70.8396 38.6397 70.5124 40.0232 70.0891 41.2325C68.9632 41.1261 67.9047 41.0583 66.9617 41.0487V36.879ZM66.9617 46.0697V42.2193C67.7893 42.2289 68.6938 42.287 69.656 42.3741C68.5013 45.0442 67.3851 45.8956 66.9617 46.0697ZM69.454 45.615C69.3481 45.673 69.1845 45.7504 69.021 45.8278C69.5502 45.1603 70.2334 44.0961 70.8685 42.4998C71.5517 42.5772 72.2637 42.674 73.0239 42.7997C72.3407 43.5447 71.5902 44.2219 70.7915 44.7927C70.3392 45.1023 69.7523 45.4409 69.454 45.615ZM72.4177 44.9958C73.1201 44.396 73.7745 43.7382 74.3807 43.0126C74.9003 43.0996 75.3526 43.1867 75.7182 43.2544C74.6886 43.9607 73.582 44.5508 72.4177 44.9958ZM77.8544 41.5324C77.585 41.7936 77.2963 42.0451 76.9595 42.3257C76.565 42.2386 75.9588 42.1129 75.1794 41.9677C75.9973 40.8165 76.6708 39.5395 77.2001 38.1754C78.5087 38.4849 79.4614 38.7945 79.9906 38.9687C79.3748 39.8974 78.6531 40.7584 77.8544 41.5324ZM80.6353 37.9529C80.1638 37.7884 79.0957 37.4401 77.5946 37.0725C78.1527 35.2827 78.4606 33.3188 78.5087 31.2485H82.5791C82.454 33.5897 81.79 35.9019 80.6353 37.9529ZM78.5087 30.0682C78.4606 28.1527 78.2008 26.3242 77.7293 24.6215C79.2593 24.2152 80.3563 23.8282 80.9432 23.6057C81.9728 25.6276 82.5309 27.7947 82.5887 30.0682H78.5087ZM114.949 27.8818H110.186V15.4985H115.093C115.093 15.4985 121.406 15.2857 121.338 21.4096C121.252 28.2494 114.949 27.8818 114.949 27.8818ZM141.796 57.6016L127.17 38.5527C139.4 31.4129 139.39 20.3164 137.966 15.4501H141.796V57.6016Z" fill="white"/>
</svg>
