<svg width="330" height="93" viewBox="0 0 330 93" fill="none" xmlns="http://www.w3.org/2000/svg">
<g clip-path="url(#clip0_20_2)">
<path d="M2.128 51C1.6 51 1.168 50.832 0.832003 50.496C0.496003 50.16 0.328003 49.728 0.328003 49.2V2.39999C0.328003 1.87199 0.496003 1.43999 0.832003 1.10399C1.168 0.767991 1.6 0.599991 2.128 0.599991H21.208C27.208 0.599991 31.936 1.99199 35.392 4.77599C38.848 7.51199 40.576 11.472 40.576 16.656C40.576 20.16 39.736 23.088 38.056 25.44C36.376 27.792 34.12 29.544 31.288 30.696L41.44 48.696C41.584 48.984 41.656 49.248 41.656 49.488C41.656 49.872 41.512 50.232 41.224 50.568C40.936 50.856 40.576 51 40.144 51H32.152C31.288 51 30.64 50.784 30.208 50.352C29.776 49.872 29.464 49.44 29.272 49.056L20.488 32.568H11.776V49.2C11.776 49.728 11.608 50.16 11.272 50.496C10.936 50.832 10.504 51 9.976 51H2.128ZM11.776 23.424H20.992C23.632 23.424 25.576 22.824 26.824 21.624C28.12 20.424 28.768 18.744 28.768 16.584C28.768 14.424 28.144 12.72 26.896 11.472C25.648 10.224 23.68 9.59999 20.992 9.59999H11.776V23.424ZM46.4541 51C46.0221 51 45.6621 50.856 45.3741 50.568C45.0861 50.232 44.9421 49.872 44.9421 49.488C44.9421 49.248 44.9661 49.032 45.0141 48.84L62.1501 2.54399C62.2941 2.01599 62.5821 1.55999 63.0141 1.17599C63.4461 0.791991 64.0461 0.599991 64.8141 0.599991H74.0301C74.7981 0.599991 75.3981 0.791991 75.8301 1.17599C76.2621 1.55999 76.5501 2.01599 76.6941 2.54399L93.8301 48.84C93.8781 49.032 93.9021 49.248 93.9021 49.488C93.9021 49.872 93.7581 50.232 93.4701 50.568C93.1821 50.856 92.8221 51 92.3901 51H84.9021C84.1821 51 83.6541 50.832 83.3181 50.496C82.9821 50.16 82.7661 49.848 82.6701 49.56L79.5741 41.496H59.2701L56.1741 49.56C56.0781 49.848 55.8621 50.16 55.5261 50.496C55.1901 50.832 54.6621 51 53.9421 51H46.4541ZM61.9341 32.208H76.8381L69.4221 11.472L61.9341 32.208ZM101.901 51C101.373 51 100.941 50.832 100.605 50.496C100.269 50.16 100.101 49.728 100.101 49.2V2.39999C100.101 1.87199 100.269 1.43999 100.605 1.10399C100.941 0.767991 101.373 0.599991 101.901 0.599991H119.973C124.773 0.599991 128.781 1.36799 131.997 2.90399C135.213 4.39199 137.661 6.59999 139.341 9.52799C141.069 12.408 141.981 15.984 142.077 20.256C142.125 22.368 142.149 24.216 142.149 25.8C142.149 27.384 142.125 29.208 142.077 31.272C141.933 35.736 141.045 39.432 139.413 42.36C137.781 45.288 135.381 47.472 132.213 48.912C129.045 50.304 125.085 51 120.333 51H101.901ZM111.549 41.712H119.973C122.373 41.712 124.341 41.352 125.877 40.632C127.413 39.912 128.541 38.784 129.261 37.248C130.029 35.664 130.437 33.624 130.485 31.128C130.533 29.736 130.557 28.488 130.557 27.384C130.605 26.28 130.605 25.176 130.557 24.072C130.557 22.968 130.533 21.744 130.485 20.4C130.389 16.8 129.453 14.16 127.677 12.48C125.949 10.752 123.261 9.88799 119.613 9.88799H111.549V41.712Z" fill="white"/>
<path d="M0.639997 87C0.463997 87 0.327997 86.952 0.231997 86.856C0.135997 86.744 0.0879974 86.608 0.0879974 86.448V70.776C0.0879974 70.6 0.135997 70.464 0.231997 70.368C0.327997 70.256 0.463997 70.2 0.639997 70.2H6.496C8.304 70.2 9.736 70.624 10.792 71.472C11.848 72.32 12.376 73.576 12.376 75.24C12.376 76.472 12.064 77.48 11.44 78.264C10.832 79.032 10 79.568 8.944 79.872L12.64 86.256C12.688 86.352 12.712 86.44 12.712 86.52C12.712 86.648 12.656 86.76 12.544 86.856C12.448 86.952 12.336 87 12.208 87H11.056C10.784 87 10.584 86.928 10.456 86.784C10.328 86.64 10.216 86.496 10.12 86.352L6.64 80.256H2.44V86.448C2.44 86.608 2.384 86.744 2.272 86.856C2.176 86.952 2.04 87 1.864 87H0.639997ZM2.44 78.216H6.4C7.6 78.216 8.496 77.968 9.088 77.472C9.68 76.96 9.976 76.208 9.976 75.216C9.976 74.24 9.68 73.496 9.088 72.984C8.512 72.472 7.616 72.216 6.4 72.216H2.44V78.216ZM20.3299 87.24C18.6819 87.24 17.3699 86.736 16.3939 85.728C15.4179 84.704 14.8819 83.312 14.7859 81.552C14.7699 81.344 14.7619 81.08 14.7619 80.76C14.7619 80.424 14.7699 80.152 14.7859 79.944C14.8499 78.808 15.1139 77.816 15.5779 76.968C16.0419 76.104 16.6739 75.44 17.4739 74.976C18.2899 74.512 19.2419 74.28 20.3299 74.28C21.5459 74.28 22.5619 74.536 23.3779 75.048C24.2099 75.56 24.8419 76.288 25.2739 77.232C25.7059 78.176 25.9219 79.28 25.9219 80.544V80.952C25.9219 81.128 25.8659 81.264 25.7539 81.36C25.6579 81.456 25.5299 81.504 25.3699 81.504H17.0659C17.0659 81.52 17.0659 81.552 17.0659 81.6C17.0659 81.648 17.0659 81.688 17.0659 81.72C17.0979 82.376 17.2419 82.992 17.4979 83.568C17.7539 84.128 18.1219 84.584 18.6019 84.936C19.0819 85.288 19.6579 85.464 20.3299 85.464C20.9059 85.464 21.3859 85.376 21.7699 85.2C22.1539 85.024 22.4659 84.832 22.7059 84.624C22.9459 84.4 23.1059 84.232 23.1859 84.12C23.3299 83.912 23.4419 83.792 23.5219 83.76C23.6019 83.712 23.7299 83.688 23.9059 83.688H25.0579C25.2179 83.688 25.3459 83.736 25.4419 83.832C25.5539 83.912 25.6019 84.032 25.5859 84.192C25.5699 84.432 25.4419 84.728 25.2019 85.08C24.9619 85.416 24.6179 85.752 24.1699 86.088C23.7219 86.424 23.1779 86.704 22.5379 86.928C21.8979 87.136 21.1619 87.24 20.3299 87.24ZM17.0659 79.848H23.6419V79.776C23.6419 79.056 23.5059 78.416 23.2339 77.856C22.9779 77.296 22.6019 76.856 22.1059 76.536C21.6099 76.2 21.0179 76.032 20.3299 76.032C19.6419 76.032 19.0499 76.2 18.5539 76.536C18.0739 76.856 17.7059 77.296 17.4499 77.856C17.1939 78.416 17.0659 79.056 17.0659 79.776V79.848ZM29.3676 91.56C29.2076 91.56 29.0716 91.504 28.9596 91.392C28.8636 91.296 28.8156 91.168 28.8156 91.008V75.072C28.8156 74.912 28.8636 74.784 28.9596 74.688C29.0716 74.576 29.2076 74.52 29.3676 74.52H30.4716C30.6316 74.52 30.7596 74.576 30.8556 74.688C30.9676 74.784 31.0236 74.912 31.0236 75.072V76.128C31.4076 75.6 31.9196 75.16 32.5596 74.808C33.1996 74.456 33.9996 74.28 34.9596 74.28C35.8556 74.28 36.6156 74.432 37.2396 74.736C37.8796 75.04 38.3996 75.456 38.7996 75.984C39.2156 76.512 39.5276 77.112 39.7356 77.784C39.9436 78.456 40.0556 79.176 40.0716 79.944C40.0876 80.2 40.0956 80.472 40.0956 80.76C40.0956 81.048 40.0876 81.32 40.0716 81.576C40.0556 82.328 39.9436 83.048 39.7356 83.736C39.5276 84.408 39.2156 85.008 38.7996 85.536C38.3996 86.048 37.8796 86.464 37.2396 86.784C36.6156 87.088 35.8556 87.24 34.9596 87.24C34.0316 87.24 33.2476 87.072 32.6076 86.736C31.9836 86.384 31.4716 85.952 31.0716 85.44V91.008C31.0716 91.168 31.0236 91.296 30.9276 91.392C30.8316 91.504 30.6956 91.56 30.5196 91.56H29.3676ZM34.4556 85.296C35.2876 85.296 35.9356 85.12 36.3996 84.768C36.8796 84.4 37.2236 83.928 37.4316 83.352C37.6396 82.76 37.7596 82.128 37.7916 81.456C37.8076 80.992 37.8076 80.528 37.7916 80.064C37.7596 79.392 37.6396 78.768 37.4316 78.192C37.2236 77.6 36.8796 77.128 36.3996 76.776C35.9356 76.408 35.2876 76.224 34.4556 76.224C33.6716 76.224 33.0316 76.408 32.5356 76.776C32.0556 77.144 31.6956 77.616 31.4556 78.192C31.2316 78.752 31.1036 79.328 31.0716 79.92C31.0556 80.176 31.0476 80.48 31.0476 80.832C31.0476 81.184 31.0556 81.496 31.0716 81.768C31.0876 82.328 31.2156 82.88 31.4556 83.424C31.7116 83.968 32.0876 84.416 32.5836 84.768C33.0796 85.12 33.7036 85.296 34.4556 85.296ZM48.2005 87.24C46.9845 87.24 45.9685 87.008 45.1525 86.544C44.3365 86.08 43.7125 85.44 43.2805 84.624C42.8485 83.792 42.6085 82.848 42.5605 81.792C42.5445 81.52 42.5365 81.176 42.5365 80.76C42.5365 80.328 42.5445 79.984 42.5605 79.728C42.6085 78.656 42.8485 77.712 43.2805 76.896C43.7285 76.08 44.3605 75.44 45.1765 74.976C45.9925 74.512 47.0005 74.28 48.2005 74.28C49.4005 74.28 50.4085 74.512 51.2245 74.976C52.0405 75.44 52.6645 76.08 53.0965 76.896C53.5445 77.712 53.7925 78.656 53.8405 79.728C53.8565 79.984 53.8645 80.328 53.8645 80.76C53.8645 81.176 53.8565 81.52 53.8405 81.792C53.7925 82.848 53.5525 83.792 53.1205 84.624C52.6885 85.44 52.0645 86.08 51.2485 86.544C50.4325 87.008 49.4165 87.24 48.2005 87.24ZM48.2005 85.392C49.1925 85.392 49.9845 85.08 50.5765 84.456C51.1685 83.816 51.4885 82.888 51.5365 81.672C51.5525 81.432 51.5605 81.128 51.5605 80.76C51.5605 80.392 51.5525 80.088 51.5365 79.848C51.4885 78.632 51.1685 77.712 50.5765 77.088C49.9845 76.448 49.1925 76.128 48.2005 76.128C47.2085 76.128 46.4085 76.448 45.8005 77.088C45.2085 77.712 44.8965 78.632 44.8645 79.848C44.8485 80.088 44.8405 80.392 44.8405 80.76C44.8405 81.128 44.8485 81.432 44.8645 81.672C44.8965 82.888 45.2085 83.816 45.8005 84.456C46.4085 85.08 47.2085 85.392 48.2005 85.392ZM61.1898 87.24C60.2938 87.24 59.5258 87.128 58.8858 86.904C58.2458 86.68 57.7258 86.408 57.3258 86.088C56.9258 85.768 56.6218 85.448 56.4138 85.128C56.2218 84.808 56.1178 84.552 56.1018 84.36C56.0858 84.184 56.1418 84.048 56.2698 83.952C56.3978 83.856 56.5258 83.808 56.6538 83.808H57.7098C57.8058 83.808 57.8778 83.824 57.9258 83.856C57.9898 83.872 58.0698 83.936 58.1658 84.048C58.3738 84.272 58.6058 84.496 58.8618 84.72C59.1178 84.944 59.4298 85.128 59.7978 85.272C60.1818 85.416 60.6538 85.488 61.2138 85.488C62.0298 85.488 62.7018 85.336 63.2298 85.032C63.7578 84.712 64.0218 84.248 64.0218 83.64C64.0218 83.24 63.9098 82.92 63.6858 82.68C63.4778 82.44 63.0938 82.224 62.5338 82.032C61.9898 81.84 61.2378 81.64 60.2778 81.432C59.3178 81.208 58.5578 80.936 57.9978 80.616C57.4378 80.28 57.0378 79.888 56.7978 79.44C56.5578 78.976 56.4378 78.456 56.4378 77.88C56.4378 77.288 56.6138 76.72 56.9658 76.176C57.3178 75.616 57.8298 75.16 58.5018 74.808C59.1898 74.456 60.0458 74.28 61.0698 74.28C61.9018 74.28 62.6138 74.384 63.2058 74.592C63.7978 74.8 64.2858 75.064 64.6698 75.384C65.0538 75.688 65.3418 75.992 65.5338 76.296C65.7258 76.6 65.8298 76.856 65.8458 77.064C65.8618 77.224 65.8138 77.36 65.7018 77.472C65.5898 77.568 65.4618 77.616 65.3178 77.616H64.3098C64.1978 77.616 64.1018 77.592 64.0218 77.544C63.9578 77.496 63.8938 77.44 63.8298 77.376C63.6698 77.168 63.4778 76.96 63.2538 76.752C63.0458 76.544 62.7658 76.376 62.4138 76.248C62.0778 76.104 61.6298 76.032 61.0698 76.032C60.2698 76.032 59.6698 76.2 59.2698 76.536C58.8698 76.872 58.6698 77.296 58.6698 77.808C58.6698 78.112 58.7578 78.384 58.9338 78.624C59.1098 78.864 59.4458 79.08 59.9418 79.272C60.4378 79.464 61.1738 79.672 62.1497 79.896C63.2058 80.104 64.0378 80.384 64.6458 80.736C65.2538 81.088 65.6858 81.496 65.9418 81.96C66.1978 82.424 66.3258 82.96 66.3258 83.568C66.3258 84.24 66.1258 84.856 65.7258 85.416C65.3418 85.976 64.7658 86.424 63.9978 86.76C63.2458 87.08 62.3098 87.24 61.1898 87.24ZM69.6561 87C69.4961 87 69.3601 86.952 69.2481 86.856C69.1521 86.744 69.1041 86.608 69.1041 86.448V75.072C69.1041 74.912 69.1521 74.784 69.2481 74.688C69.3601 74.576 69.4961 74.52 69.6561 74.52H70.8081C70.9681 74.52 71.0961 74.576 71.1921 74.688C71.2881 74.784 71.3361 74.912 71.3361 75.072V86.448C71.3361 86.608 71.2881 86.744 71.1921 86.856C71.0961 86.952 70.9681 87 70.8081 87H69.6561ZM69.4641 72.192C69.3041 72.192 69.1681 72.144 69.0561 72.048C68.9601 71.936 68.9121 71.8 68.9121 71.64V70.344C68.9121 70.184 68.9601 70.056 69.0561 69.96C69.1681 69.848 69.3041 69.792 69.4641 69.792H70.9761C71.1361 69.792 71.2641 69.848 71.3601 69.96C71.4721 70.056 71.5281 70.184 71.5281 70.344V71.64C71.5281 71.8 71.4721 71.936 71.3601 72.048C71.2641 72.144 71.1361 72.192 70.9761 72.192H69.4641ZM79.7886 87C78.8926 87 78.1646 86.832 77.6046 86.496C77.0446 86.144 76.6366 85.656 76.3806 85.032C76.1246 84.392 75.9966 83.64 75.9966 82.776V76.44H74.1246C73.9646 76.44 73.8286 76.392 73.7166 76.296C73.6206 76.184 73.5726 76.048 73.5726 75.888V75.072C73.5726 74.912 73.6206 74.784 73.7166 74.688C73.8286 74.576 73.9646 74.52 74.1246 74.52H75.9966V70.512C75.9966 70.352 76.0446 70.224 76.1406 70.128C76.2526 70.016 76.3886 69.96 76.5486 69.96H77.6766C77.8366 69.96 77.9646 70.016 78.0606 70.128C78.1726 70.224 78.2286 70.352 78.2286 70.512V74.52H81.2046C81.3646 74.52 81.4926 74.576 81.5886 74.688C81.7006 74.784 81.7566 74.912 81.7566 75.072V75.888C81.7566 76.048 81.7006 76.184 81.5886 76.296C81.4926 76.392 81.3646 76.44 81.2046 76.44H78.2286V82.608C78.2286 83.36 78.3566 83.952 78.6126 84.384C78.8686 84.816 79.3246 85.032 79.9806 85.032H81.4446C81.6046 85.032 81.7326 85.088 81.8286 85.2C81.9406 85.296 81.9966 85.424 81.9966 85.584V86.448C81.9966 86.608 81.9406 86.744 81.8286 86.856C81.7326 86.952 81.6046 87 81.4446 87H79.7886ZM89.4036 87.24C88.1876 87.24 87.1716 87.008 86.3556 86.544C85.5396 86.08 84.9156 85.44 84.4836 84.624C84.0516 83.792 83.8116 82.848 83.7636 81.792C83.7476 81.52 83.7396 81.176 83.7396 80.76C83.7396 80.328 83.7476 79.984 83.7636 79.728C83.8116 78.656 84.0516 77.712 84.4836 76.896C84.9316 76.08 85.5636 75.44 86.3796 74.976C87.1956 74.512 88.2036 74.28 89.4036 74.28C90.6036 74.28 91.6116 74.512 92.4276 74.976C93.2436 75.44 93.8676 76.08 94.2996 76.896C94.7476 77.712 94.9956 78.656 95.0436 79.728C95.0596 79.984 95.0676 80.328 95.0676 80.76C95.0676 81.176 95.0596 81.52 95.0436 81.792C94.9956 82.848 94.7556 83.792 94.3236 84.624C93.8916 85.44 93.2676 86.08 92.4516 86.544C91.6356 87.008 90.6196 87.24 89.4036 87.24ZM89.4036 85.392C90.3956 85.392 91.1876 85.08 91.7796 84.456C92.3716 83.816 92.6916 82.888 92.7396 81.672C92.7556 81.432 92.7636 81.128 92.7636 80.76C92.7636 80.392 92.7556 80.088 92.7396 79.848C92.6916 78.632 92.3716 77.712 91.7796 77.088C91.1876 76.448 90.3956 76.128 89.4036 76.128C88.4116 76.128 87.6116 76.448 87.0036 77.088C86.4116 77.712 86.0996 78.632 86.0676 79.848C86.0516 80.088 86.0436 80.392 86.0436 80.76C86.0436 81.128 86.0516 81.432 86.0676 81.672C86.0996 82.888 86.4116 83.816 87.0036 84.456C87.6116 85.08 88.4116 85.392 89.4036 85.392ZM98.6249 87C98.4649 87 98.3289 86.952 98.2169 86.856C98.1209 86.744 98.0729 86.608 98.0729 86.448V75.096C98.0729 74.936 98.1209 74.8 98.2169 74.688C98.3289 74.576 98.4649 74.52 98.6249 74.52H99.7289C99.8889 74.52 100.025 74.576 100.137 74.688C100.249 74.8 100.305 74.936 100.305 75.096V76.152C100.625 75.608 101.065 75.2 101.625 74.928C102.185 74.656 102.857 74.52 103.641 74.52H104.601C104.761 74.52 104.889 74.576 104.985 74.688C105.081 74.784 105.129 74.912 105.129 75.072V76.056C105.129 76.216 105.081 76.344 104.985 76.44C104.889 76.536 104.761 76.584 104.601 76.584H103.161C102.297 76.584 101.617 76.84 101.121 77.352C100.625 77.848 100.377 78.528 100.377 79.392V86.448C100.377 86.608 100.321 86.744 100.209 86.856C100.097 86.952 99.9609 87 99.8009 87H98.6249ZM107.742 87C107.582 87 107.446 86.952 107.334 86.856C107.238 86.744 107.19 86.608 107.19 86.448V75.072C107.19 74.912 107.238 74.784 107.334 74.688C107.446 74.576 107.582 74.52 107.742 74.52H108.894C109.054 74.52 109.182 74.576 109.278 74.688C109.374 74.784 109.422 74.912 109.422 75.072V86.448C109.422 86.608 109.374 86.744 109.278 86.856C109.182 86.952 109.054 87 108.894 87H107.742ZM107.55 72.192C107.39 72.192 107.254 72.144 107.142 72.048C107.046 71.936 106.998 71.8 106.998 71.64V70.344C106.998 70.184 107.046 70.056 107.142 69.96C107.254 69.848 107.39 69.792 107.55 69.792H109.062C109.222 69.792 109.35 69.848 109.446 69.96C109.558 70.056 109.614 70.184 109.614 70.344V71.64C109.614 71.8 109.558 71.936 109.446 72.048C109.35 72.144 109.222 72.192 109.062 72.192H107.55ZM118.161 87.24C116.945 87.24 115.929 87.008 115.113 86.544C114.297 86.08 113.673 85.44 113.241 84.624C112.809 83.792 112.569 82.848 112.521 81.792C112.505 81.52 112.497 81.176 112.497 80.76C112.497 80.328 112.505 79.984 112.521 79.728C112.569 78.656 112.809 77.712 113.241 76.896C113.689 76.08 114.321 75.44 115.137 74.976C115.953 74.512 116.961 74.28 118.161 74.28C119.361 74.28 120.369 74.512 121.185 74.976C122.001 75.44 122.625 76.08 123.057 76.896C123.505 77.712 123.753 78.656 123.801 79.728C123.817 79.984 123.825 80.328 123.825 80.76C123.825 81.176 123.817 81.52 123.801 81.792C123.753 82.848 123.513 83.792 123.081 84.624C122.649 85.44 122.025 86.08 121.209 86.544C120.393 87.008 119.377 87.24 118.161 87.24ZM118.161 85.392C119.153 85.392 119.945 85.08 120.537 84.456C121.129 83.816 121.449 82.888 121.497 81.672C121.513 81.432 121.521 81.128 121.521 80.76C121.521 80.392 121.513 80.088 121.497 79.848C121.449 78.632 121.129 77.712 120.537 77.088C119.945 76.448 119.153 76.128 118.161 76.128C117.169 76.128 116.369 76.448 115.761 77.088C115.169 77.712 114.857 78.632 114.825 79.848C114.809 80.088 114.801 80.392 114.801 80.76C114.801 81.128 114.809 81.432 114.825 81.672C114.857 82.888 115.169 83.816 115.761 84.456C116.369 85.08 117.169 85.392 118.161 85.392ZM131.265 87C131.137 87 131.025 86.952 130.929 86.856C130.833 86.76 130.785 86.648 130.785 86.52C130.785 86.44 130.793 86.352 130.809 86.256L136.761 70.728C136.825 70.568 136.913 70.44 137.025 70.344C137.137 70.248 137.305 70.2 137.529 70.2H139.161C139.369 70.2 139.529 70.248 139.641 70.344C139.769 70.44 139.865 70.568 139.929 70.728L145.857 86.256C145.889 86.352 145.905 86.44 145.905 86.52C145.905 86.648 145.857 86.76 145.761 86.856C145.665 86.952 145.553 87 145.425 87H144.201C144.009 87 143.865 86.952 143.769 86.856C143.689 86.76 143.633 86.672 143.601 86.592L142.281 83.184H134.409L133.089 86.592C133.073 86.672 133.017 86.76 132.921 86.856C132.825 86.952 132.681 87 132.489 87H131.265ZM135.105 81.12H141.585L138.345 72.6L135.105 81.12ZM153.058 87.24C151.922 87.24 150.938 87.024 150.106 86.592C149.29 86.144 148.658 85.512 148.21 84.696C147.762 83.864 147.522 82.872 147.49 81.72C147.474 81.48 147.466 81.16 147.466 80.76C147.466 80.36 147.474 80.04 147.49 79.8C147.522 78.648 147.762 77.664 148.21 76.848C148.658 76.016 149.29 75.384 150.106 74.952C150.938 74.504 151.922 74.28 153.058 74.28C153.986 74.28 154.778 74.408 155.434 74.664C156.106 74.92 156.658 75.248 157.09 75.648C157.522 76.048 157.842 76.48 158.05 76.944C158.274 77.408 158.394 77.848 158.41 78.264C158.426 78.424 158.378 78.552 158.266 78.648C158.154 78.744 158.018 78.792 157.858 78.792H156.706C156.546 78.792 156.426 78.76 156.346 78.696C156.266 78.616 156.186 78.488 156.106 78.312C155.818 77.528 155.426 76.976 154.93 76.656C154.434 76.336 153.818 76.176 153.082 76.176C152.122 76.176 151.338 76.472 150.73 77.064C150.138 77.656 149.818 78.608 149.77 79.92C149.754 80.496 149.754 81.056 149.77 81.6C149.818 82.928 150.138 83.888 150.73 84.48C151.338 85.056 152.122 85.344 153.082 85.344C153.818 85.344 154.434 85.184 154.93 84.864C155.426 84.544 155.818 83.992 156.106 83.208C156.186 83.032 156.266 82.912 156.346 82.848C156.426 82.768 156.546 82.728 156.706 82.728H157.858C158.018 82.728 158.154 82.776 158.266 82.872C158.378 82.968 158.426 83.096 158.41 83.256C158.394 83.592 158.322 83.936 158.194 84.288C158.066 84.64 157.858 85 157.57 85.368C157.298 85.72 156.954 86.04 156.538 86.328C156.122 86.6 155.618 86.824 155.026 87C154.45 87.16 153.794 87.24 153.058 87.24ZM164.74 87.24C163.94 87.24 163.212 87.08 162.556 86.76C161.9 86.44 161.372 86.008 160.972 85.464C160.572 84.92 160.372 84.304 160.372 83.616C160.372 82.512 160.82 81.632 161.716 80.976C162.612 80.32 163.78 79.888 165.22 79.68L168.796 79.176V78.48C168.796 77.712 168.572 77.112 168.124 76.68C167.692 76.248 166.98 76.032 165.988 76.032C165.268 76.032 164.684 76.176 164.236 76.464C163.804 76.752 163.5 77.12 163.324 77.568C163.228 77.808 163.06 77.928 162.82 77.928H161.74C161.564 77.928 161.428 77.88 161.332 77.784C161.252 77.672 161.212 77.544 161.212 77.4C161.212 77.16 161.3 76.864 161.476 76.512C161.668 76.16 161.956 75.816 162.34 75.48C162.724 75.144 163.212 74.864 163.804 74.64C164.412 74.4 165.148 74.28 166.012 74.28C166.972 74.28 167.78 74.408 168.436 74.664C169.092 74.904 169.604 75.232 169.972 75.648C170.356 76.064 170.628 76.536 170.788 77.064C170.964 77.592 171.052 78.128 171.052 78.672V86.448C171.052 86.608 170.996 86.744 170.884 86.856C170.788 86.952 170.66 87 170.5 87H169.396C169.22 87 169.084 86.952 168.988 86.856C168.892 86.744 168.844 86.608 168.844 86.448V85.416C168.636 85.704 168.356 85.992 168.004 86.28C167.652 86.552 167.212 86.784 166.684 86.976C166.156 87.152 165.508 87.24 164.74 87.24ZM165.244 85.44C165.9 85.44 166.5 85.304 167.044 85.032C167.588 84.744 168.012 84.304 168.316 83.712C168.636 83.12 168.796 82.376 168.796 81.48V80.808L166.012 81.216C164.876 81.376 164.02 81.648 163.444 82.032C162.868 82.4 162.58 82.872 162.58 83.448C162.58 83.896 162.708 84.272 162.964 84.576C163.236 84.864 163.572 85.08 163.972 85.224C164.388 85.368 164.812 85.44 165.244 85.44ZM179.063 87.24C178.183 87.24 177.423 87.088 176.783 86.784C176.143 86.464 175.615 86.04 175.199 85.512C174.799 84.968 174.495 84.352 174.287 83.664C174.095 82.976 173.983 82.248 173.951 81.48C173.935 81.224 173.927 80.984 173.927 80.76C173.927 80.536 173.935 80.296 173.951 80.04C173.983 79.288 174.095 78.568 174.287 77.88C174.495 77.192 174.799 76.576 175.199 76.032C175.615 75.488 176.143 75.064 176.783 74.76C177.423 74.44 178.183 74.28 179.063 74.28C180.007 74.28 180.791 74.448 181.415 74.784C182.039 75.12 182.551 75.536 182.951 76.032V70.512C182.951 70.352 182.999 70.224 183.095 70.128C183.207 70.016 183.343 69.96 183.503 69.96H184.655C184.815 69.96 184.943 70.016 185.039 70.128C185.151 70.224 185.207 70.352 185.207 70.512V86.448C185.207 86.608 185.151 86.744 185.039 86.856C184.943 86.952 184.815 87 184.655 87H183.575C183.399 87 183.263 86.952 183.167 86.856C183.071 86.744 183.023 86.608 183.023 86.448V85.44C182.623 85.952 182.103 86.384 181.463 86.736C180.823 87.072 180.023 87.24 179.063 87.24ZM179.567 85.296C180.367 85.296 181.007 85.112 181.487 84.744C181.967 84.376 182.327 83.912 182.567 83.352C182.807 82.776 182.935 82.192 182.951 81.6C182.967 81.344 182.975 81.04 182.975 80.688C182.975 80.32 182.967 80.008 182.951 79.752C182.935 79.192 182.799 78.64 182.543 78.096C182.303 77.552 181.935 77.104 181.439 76.752C180.959 76.4 180.335 76.224 179.567 76.224C178.751 76.224 178.103 76.408 177.623 76.776C177.143 77.128 176.799 77.6 176.591 78.192C176.383 78.768 176.263 79.392 176.231 80.064C176.215 80.528 176.215 80.992 176.231 81.456C176.263 82.128 176.383 82.76 176.591 83.352C176.799 83.928 177.143 84.4 177.623 84.768C178.103 85.12 178.751 85.296 179.567 85.296ZM193.744 87.24C192.096 87.24 190.784 86.736 189.808 85.728C188.832 84.704 188.296 83.312 188.2 81.552C188.184 81.344 188.176 81.08 188.176 80.76C188.176 80.424 188.184 80.152 188.2 79.944C188.264 78.808 188.528 77.816 188.992 76.968C189.456 76.104 190.088 75.44 190.888 74.976C191.704 74.512 192.656 74.28 193.744 74.28C194.96 74.28 195.976 74.536 196.792 75.048C197.624 75.56 198.256 76.288 198.688 77.232C199.12 78.176 199.336 79.28 199.336 80.544V80.952C199.336 81.128 199.28 81.264 199.168 81.36C199.072 81.456 198.944 81.504 198.784 81.504H190.48C190.48 81.52 190.48 81.552 190.48 81.6C190.48 81.648 190.48 81.688 190.48 81.72C190.512 82.376 190.656 82.992 190.912 83.568C191.168 84.128 191.536 84.584 192.016 84.936C192.496 85.288 193.072 85.464 193.744 85.464C194.32 85.464 194.8 85.376 195.184 85.2C195.568 85.024 195.88 84.832 196.12 84.624C196.36 84.4 196.52 84.232 196.6 84.12C196.744 83.912 196.856 83.792 196.936 83.76C197.016 83.712 197.144 83.688 197.32 83.688H198.472C198.632 83.688 198.76 83.736 198.856 83.832C198.968 83.912 199.016 84.032 199 84.192C198.984 84.432 198.856 84.728 198.616 85.08C198.376 85.416 198.032 85.752 197.584 86.088C197.136 86.424 196.592 86.704 195.952 86.928C195.312 87.136 194.576 87.24 193.744 87.24ZM190.48 79.848H197.056V79.776C197.056 79.056 196.92 78.416 196.648 77.856C196.392 77.296 196.016 76.856 195.52 76.536C195.024 76.2 194.432 76.032 193.744 76.032C193.056 76.032 192.464 76.2 191.968 76.536C191.488 76.856 191.12 77.296 190.864 77.856C190.608 78.416 190.48 79.056 190.48 79.776V79.848ZM193.096 72.72C192.84 72.72 192.712 72.592 192.712 72.336C192.712 72.208 192.752 72.104 192.832 72.024L194.632 69.864C194.776 69.688 194.904 69.576 195.016 69.528C195.128 69.464 195.296 69.432 195.52 69.432H197.152C197.456 69.432 197.608 69.584 197.608 69.888C197.608 70 197.568 70.096 197.488 70.176L194.704 72.456C194.576 72.568 194.456 72.64 194.344 72.672C194.232 72.704 194.088 72.72 193.912 72.72H193.096ZM202.758 87C202.598 87 202.462 86.952 202.35 86.856C202.254 86.744 202.206 86.608 202.206 86.448V75.072C202.206 74.912 202.254 74.784 202.35 74.688C202.462 74.576 202.598 74.52 202.758 74.52H203.838C203.998 74.52 204.126 74.576 204.222 74.688C204.334 74.784 204.39 74.912 204.39 75.072V75.912C204.758 75.416 205.222 75.024 205.782 74.736C206.342 74.432 207.014 74.28 207.798 74.28C209.606 74.264 210.886 75 211.638 76.488C212.006 75.816 212.542 75.28 213.246 74.88C213.95 74.48 214.75 74.28 215.646 74.28C216.478 74.28 217.23 74.472 217.902 74.856C218.59 75.24 219.126 75.824 219.51 76.608C219.91 77.376 220.11 78.344 220.11 79.512V86.448C220.11 86.608 220.054 86.744 219.942 86.856C219.846 86.952 219.718 87 219.558 87H218.43C218.27 87 218.134 86.952 218.022 86.856C217.926 86.744 217.878 86.608 217.878 86.448V79.728C217.878 78.832 217.75 78.128 217.494 77.616C217.238 77.104 216.894 76.744 216.462 76.536C216.03 76.328 215.558 76.224 215.046 76.224C214.63 76.224 214.206 76.328 213.774 76.536C213.342 76.744 212.982 77.104 212.694 77.616C212.422 78.128 212.286 78.832 212.286 79.728V86.448C212.286 86.608 212.23 86.744 212.118 86.856C212.022 86.952 211.894 87 211.734 87H210.606C210.446 87 210.31 86.952 210.198 86.856C210.102 86.744 210.054 86.608 210.054 86.448V79.728C210.054 78.832 209.918 78.128 209.646 77.616C209.374 77.104 209.022 76.744 208.59 76.536C208.158 76.328 207.702 76.224 207.222 76.224C206.806 76.224 206.382 76.328 205.95 76.536C205.518 76.744 205.158 77.104 204.87 77.616C204.598 78.128 204.462 78.824 204.462 79.704V86.448C204.462 86.608 204.406 86.744 204.294 86.856C204.198 86.952 204.07 87 203.91 87H202.758ZM224.086 87C223.926 87 223.79 86.952 223.678 86.856C223.582 86.744 223.534 86.608 223.534 86.448V75.072C223.534 74.912 223.582 74.784 223.678 74.688C223.79 74.576 223.926 74.52 224.086 74.52H225.238C225.398 74.52 225.526 74.576 225.622 74.688C225.718 74.784 225.766 74.912 225.766 75.072V86.448C225.766 86.608 225.718 86.744 225.622 86.856C225.526 86.952 225.398 87 225.238 87H224.086ZM223.894 72.192C223.734 72.192 223.598 72.144 223.486 72.048C223.39 71.936 223.342 71.8 223.342 71.64V70.344C223.342 70.184 223.39 70.056 223.486 69.96C223.598 69.848 223.734 69.792 223.894 69.792H225.406C225.566 69.792 225.694 69.848 225.79 69.96C225.902 70.056 225.958 70.184 225.958 70.344V71.64C225.958 71.8 225.902 71.936 225.79 72.048C225.694 72.144 225.566 72.192 225.406 72.192H223.894ZM234.433 87.24C233.297 87.24 232.313 87.024 231.481 86.592C230.665 86.144 230.033 85.512 229.585 84.696C229.137 83.864 228.897 82.872 228.865 81.72C228.849 81.48 228.841 81.16 228.841 80.76C228.841 80.36 228.849 80.04 228.865 79.8C228.897 78.648 229.137 77.664 229.585 76.848C230.033 76.016 230.665 75.384 231.481 74.952C232.313 74.504 233.297 74.28 234.433 74.28C235.361 74.28 236.153 74.408 236.809 74.664C237.481 74.92 238.033 75.248 238.465 75.648C238.897 76.048 239.217 76.48 239.425 76.944C239.649 77.408 239.769 77.848 239.785 78.264C239.801 78.424 239.753 78.552 239.641 78.648C239.529 78.744 239.393 78.792 239.233 78.792H238.081C237.921 78.792 237.801 78.76 237.721 78.696C237.641 78.616 237.561 78.488 237.481 78.312C237.193 77.528 236.801 76.976 236.305 76.656C235.809 76.336 235.193 76.176 234.457 76.176C233.497 76.176 232.713 76.472 232.105 77.064C231.513 77.656 231.193 78.608 231.145 79.92C231.129 80.496 231.129 81.056 231.145 81.6C231.193 82.928 231.513 83.888 232.105 84.48C232.713 85.056 233.497 85.344 234.457 85.344C235.193 85.344 235.809 85.184 236.305 84.864C236.801 84.544 237.193 83.992 237.481 83.208C237.561 83.032 237.641 82.912 237.721 82.848C237.801 82.768 237.921 82.728 238.081 82.728H239.233C239.393 82.728 239.529 82.776 239.641 82.872C239.753 82.968 239.801 83.096 239.785 83.256C239.769 83.592 239.697 83.936 239.569 84.288C239.441 84.64 239.233 85 238.945 85.368C238.673 85.72 238.329 86.04 237.913 86.328C237.497 86.6 236.993 86.824 236.401 87C235.825 87.16 235.169 87.24 234.433 87.24ZM247.747 87.24C246.531 87.24 245.515 87.008 244.699 86.544C243.883 86.08 243.259 85.44 242.827 84.624C242.395 83.792 242.155 82.848 242.107 81.792C242.091 81.52 242.083 81.176 242.083 80.76C242.083 80.328 242.091 79.984 242.107 79.728C242.155 78.656 242.395 77.712 242.827 76.896C243.275 76.08 243.907 75.44 244.723 74.976C245.539 74.512 246.547 74.28 247.747 74.28C248.947 74.28 249.955 74.512 250.771 74.976C251.587 75.44 252.211 76.08 252.643 76.896C253.091 77.712 253.339 78.656 253.387 79.728C253.403 79.984 253.411 80.328 253.411 80.76C253.411 81.176 253.403 81.52 253.387 81.792C253.339 82.848 253.099 83.792 252.667 84.624C252.235 85.44 251.611 86.08 250.795 86.544C249.979 87.008 248.963 87.24 247.747 87.24ZM247.747 85.392C248.739 85.392 249.531 85.08 250.123 84.456C250.715 83.816 251.035 82.888 251.083 81.672C251.099 81.432 251.107 81.128 251.107 80.76C251.107 80.392 251.099 80.088 251.083 79.848C251.035 78.632 250.715 77.712 250.123 77.088C249.531 76.448 248.739 76.128 247.747 76.128C246.755 76.128 245.955 76.448 245.347 77.088C244.755 77.712 244.443 78.632 244.411 79.848C244.395 80.088 244.387 80.392 244.387 80.76C244.387 81.128 244.395 81.432 244.411 81.672C244.443 82.888 244.755 83.816 245.347 84.456C245.955 85.08 246.755 85.392 247.747 85.392ZM263.163 87C262.987 87 262.851 86.952 262.755 86.856C262.659 86.744 262.611 86.608 262.611 86.448V70.776C262.611 70.6 262.659 70.464 262.755 70.368C262.851 70.256 262.987 70.2 263.163 70.2H268.611C270.259 70.2 271.587 70.448 272.595 70.944C273.603 71.44 274.339 72.176 274.803 73.152C275.267 74.112 275.507 75.296 275.523 76.704C275.539 77.424 275.547 78.056 275.547 78.6C275.547 79.144 275.539 79.768 275.523 80.472C275.491 81.944 275.243 83.168 274.779 84.144C274.331 85.104 273.611 85.824 272.619 86.304C271.643 86.768 270.347 87 268.731 87H263.163ZM264.963 84.96H268.611C269.715 84.96 270.595 84.808 271.251 84.504C271.907 84.2 272.379 83.712 272.667 83.04C272.971 82.368 273.131 81.48 273.147 80.376C273.179 79.896 273.195 79.48 273.195 79.128C273.195 78.76 273.195 78.4 273.195 78.048C273.195 77.68 273.179 77.264 273.147 76.8C273.115 75.248 272.747 74.104 272.043 73.368C271.339 72.616 270.155 72.24 268.491 72.24H264.963V84.96ZM279.398 87C279.238 87 279.102 86.952 278.99 86.856C278.894 86.744 278.846 86.608 278.846 86.448V75.072C278.846 74.912 278.894 74.784 278.99 74.688C279.102 74.576 279.238 74.52 279.398 74.52H280.55C280.71 74.52 280.838 74.576 280.934 74.688C281.03 74.784 281.078 74.912 281.078 75.072V86.448C281.078 86.608 281.03 86.744 280.934 86.856C280.838 86.952 280.71 87 280.55 87H279.398ZM279.206 72.192C279.046 72.192 278.91 72.144 278.798 72.048C278.702 71.936 278.654 71.8 278.654 71.64V70.344C278.654 70.184 278.702 70.056 278.798 69.96C278.91 69.848 279.046 69.792 279.206 69.792H280.718C280.878 69.792 281.006 69.848 281.102 69.96C281.214 70.056 281.27 70.184 281.27 70.344V71.64C281.27 71.8 281.214 71.936 281.102 72.048C281.006 72.144 280.878 72.192 280.718 72.192H279.206ZM289.771 92.28C288.683 92.28 287.787 92.136 287.083 91.848C286.395 91.56 285.851 91.208 285.451 90.792C285.067 90.392 284.787 89.984 284.611 89.568C284.451 89.168 284.363 88.848 284.347 88.608C284.331 88.448 284.379 88.312 284.491 88.2C284.619 88.088 284.755 88.032 284.899 88.032H286.051C286.195 88.032 286.315 88.064 286.411 88.128C286.507 88.192 286.587 88.328 286.651 88.536C286.747 88.776 286.891 89.04 287.083 89.328C287.275 89.632 287.571 89.888 287.971 90.096C288.371 90.32 288.931 90.432 289.651 90.432C290.403 90.432 291.035 90.328 291.547 90.12C292.059 89.928 292.443 89.576 292.699 89.064C292.971 88.568 293.107 87.88 293.107 87V85.368C292.723 85.864 292.219 86.28 291.595 86.616C290.971 86.936 290.187 87.096 289.243 87.096C288.347 87.096 287.579 86.944 286.939 86.64C286.299 86.32 285.771 85.896 285.355 85.368C284.955 84.824 284.651 84.208 284.443 83.52C284.251 82.832 284.139 82.112 284.107 81.36C284.091 80.912 284.091 80.472 284.107 80.04C284.139 79.288 284.251 78.568 284.443 77.88C284.651 77.192 284.955 76.576 285.355 76.032C285.771 75.488 286.299 75.064 286.939 74.76C287.579 74.44 288.347 74.28 289.243 74.28C290.203 74.28 290.995 74.464 291.619 74.832C292.259 75.184 292.779 75.616 293.179 76.128V75.096C293.179 74.936 293.227 74.8 293.323 74.688C293.435 74.576 293.571 74.52 293.731 74.52H294.835C294.995 74.52 295.131 74.576 295.243 74.688C295.355 74.8 295.411 74.936 295.411 75.096V86.736C295.411 87.808 295.227 88.76 294.859 89.592C294.507 90.424 293.915 91.08 293.083 91.56C292.267 92.04 291.163 92.28 289.771 92.28ZM289.723 85.176C290.523 85.176 291.163 84.992 291.643 84.624C292.139 84.256 292.499 83.792 292.723 83.232C292.963 82.672 293.091 82.104 293.107 81.528C293.123 81.304 293.131 81.032 293.131 80.712C293.131 80.376 293.123 80.096 293.107 79.872C293.091 79.296 292.963 78.728 292.723 78.168C292.499 77.608 292.139 77.144 291.643 76.776C291.163 76.408 290.523 76.224 289.723 76.224C288.923 76.224 288.283 76.408 287.803 76.776C287.323 77.128 286.979 77.6 286.771 78.192C286.563 78.768 286.443 79.392 286.411 80.064C286.395 80.48 286.395 80.904 286.411 81.336C286.443 82.008 286.563 82.64 286.771 83.232C286.979 83.808 287.323 84.28 287.803 84.648C288.283 85 288.923 85.176 289.723 85.176ZM299.531 87C299.371 87 299.235 86.952 299.123 86.856C299.027 86.744 298.979 86.608 298.979 86.448V75.072C298.979 74.912 299.027 74.784 299.123 74.688C299.235 74.576 299.371 74.52 299.531 74.52H300.683C300.843 74.52 300.971 74.576 301.067 74.688C301.163 74.784 301.211 74.912 301.211 75.072V86.448C301.211 86.608 301.163 86.744 301.067 86.856C300.971 86.952 300.843 87 300.683 87H299.531ZM299.339 72.192C299.179 72.192 299.043 72.144 298.931 72.048C298.835 71.936 298.787 71.8 298.787 71.64V70.344C298.787 70.184 298.835 70.056 298.931 69.96C299.043 69.848 299.179 69.792 299.339 69.792H300.851C301.011 69.792 301.139 69.848 301.235 69.96C301.347 70.056 301.403 70.184 301.403 70.344V71.64C301.403 71.8 301.347 71.936 301.235 72.048C301.139 72.144 301.011 72.192 300.851 72.192H299.339ZM309.664 87C308.768 87 308.04 86.832 307.48 86.496C306.92 86.144 306.512 85.656 306.256 85.032C306 84.392 305.872 83.64 305.872 82.776V76.44H304C303.84 76.44 303.704 76.392 303.592 76.296C303.496 76.184 303.448 76.048 303.448 75.888V75.072C303.448 74.912 303.496 74.784 303.592 74.688C303.704 74.576 303.84 74.52 304 74.52H305.872V70.512C305.872 70.352 305.92 70.224 306.016 70.128C306.128 70.016 306.264 69.96 306.424 69.96H307.552C307.712 69.96 307.84 70.016 307.936 70.128C308.048 70.224 308.104 70.352 308.104 70.512V74.52H311.08C311.24 74.52 311.368 74.576 311.464 74.688C311.576 74.784 311.632 74.912 311.632 75.072V75.888C311.632 76.048 311.576 76.184 311.464 76.296C311.368 76.392 311.24 76.44 311.08 76.44H308.104V82.608C308.104 83.36 308.232 83.952 308.488 84.384C308.744 84.816 309.2 85.032 309.856 85.032H311.32C311.48 85.032 311.608 85.088 311.704 85.2C311.816 85.296 311.872 85.424 311.872 85.584V86.448C311.872 86.608 311.816 86.744 311.704 86.856C311.608 86.952 311.48 87 311.32 87H309.664ZM317.647 87.24C316.847 87.24 316.119 87.08 315.463 86.76C314.807 86.44 314.279 86.008 313.879 85.464C313.479 84.92 313.279 84.304 313.279 83.616C313.279 82.512 313.727 81.632 314.623 80.976C315.519 80.32 316.687 79.888 318.127 79.68L321.703 79.176V78.48C321.703 77.712 321.479 77.112 321.031 76.68C320.599 76.248 319.887 76.032 318.895 76.032C318.175 76.032 317.591 76.176 317.143 76.464C316.711 76.752 316.407 77.12 316.231 77.568C316.135 77.808 315.967 77.928 315.727 77.928H314.647C314.471 77.928 314.335 77.88 314.239 77.784C314.159 77.672 314.119 77.544 314.119 77.4C314.119 77.16 314.207 76.864 314.383 76.512C314.575 76.16 314.863 75.816 315.247 75.48C315.631 75.144 316.119 74.864 316.711 74.64C317.319 74.4 318.055 74.28 318.919 74.28C319.879 74.28 320.687 74.408 321.343 74.664C321.999 74.904 322.511 75.232 322.879 75.648C323.263 76.064 323.535 76.536 323.695 77.064C323.871 77.592 323.959 78.128 323.959 78.672V86.448C323.959 86.608 323.903 86.744 323.791 86.856C323.695 86.952 323.567 87 323.407 87H322.303C322.127 87 321.991 86.952 321.895 86.856C321.799 86.744 321.751 86.608 321.751 86.448V85.416C321.543 85.704 321.263 85.992 320.911 86.28C320.559 86.552 320.119 86.784 319.591 86.976C319.063 87.152 318.415 87.24 317.647 87.24ZM318.151 85.44C318.807 85.44 319.407 85.304 319.951 85.032C320.495 84.744 320.919 84.304 321.223 83.712C321.543 83.12 321.703 82.376 321.703 81.48V80.808L318.919 81.216C317.783 81.376 316.927 81.648 316.351 82.032C315.775 82.4 315.487 82.872 315.487 83.448C315.487 83.896 315.615 84.272 315.871 84.576C316.143 84.864 316.479 85.08 316.879 85.224C317.295 85.368 317.719 85.44 318.151 85.44ZM327.985 87C327.825 87 327.689 86.952 327.577 86.856C327.481 86.744 327.433 86.608 327.433 86.448V70.512C327.433 70.352 327.481 70.224 327.577 70.128C327.689 70.016 327.825 69.96 327.985 69.96H329.113C329.289 69.96 329.425 70.016 329.521 70.128C329.617 70.224 329.665 70.352 329.665 70.512V86.448C329.665 86.608 329.617 86.744 329.521 86.856C329.425 86.952 329.289 87 329.113 87H327.985Z" fill="white"/>
</g>
<defs>
<clipPath id="clip0_20_2">
<rect width="330" height="93" fill="white"/>
</clipPath>
</defs>
</svg>
