<svg width="512" height="512" viewBox="0 0 512 512" fill="none" xmlns="http://www.w3.org/2000/svg">
<g clip-path="url(#clip0_15_23)">
<path d="M507.3 484.7L365.8 343.2C397 306.8 415.1 259.7 415.1 208C415.1 93.1 321.97 0 207.1 0C92.2302 0 0 93.13 0 208C0 322.87 93.1202 416 207.1 416C258.78 416 305.95 397.04 342.3 365.85L483.8 507.35C487.8 510.4 491.9 512 496 512C500.1 512 504.188 510.438 507.31 507.312C513.6 501.1 513.6 490.9 507.3 484.7ZM208 384C110.1 384 32.0002 305 32.0002 208C32.0002 111 110.1 32 208 32C305.9 32 384 110.1 384 208C384 305.9 305 384 208 384Z" fill="#661020"/>
</g>
<defs>
<clipPath id="clip0_15_23">
<rect width="512" height="512" fill="white"/>
</clipPath>
</defs>
</svg>
