<svg width="11" height="16" viewBox="0 0 11 16" fill="none" xmlns="http://www.w3.org/2000/svg">
<path id="Vector" d="M1.8032 14.934L1.80131 14.9321L0.697792 13.8286C0.433019 13.5638 0.435752 13.1397 0.695901 12.8823L0.697792 12.8804L5.40482 8.17338L5.75838 7.81982L5.40482 7.46627L0.697792 2.75924C0.433019 2.49447 0.435752 2.07033 0.695896 1.81296L0.695921 1.81298L0.700125 1.80872L1.79744 0.696779C2.06228 0.433026 2.48566 0.436084 2.74271 0.695896L2.7427 0.695901L2.74459 0.697792L9.38521 7.33842L9.38709 7.34028C9.65352 7.60391 9.6535 8.02806 9.3901 8.29147L2.74947 14.9321C2.4847 15.1969 2.06057 15.1941 1.8032 14.934Z" fill="white" stroke="#661020"/>
</svg>
