<?xml version="1.0" encoding="utf-8"?>
<svg version="1.1" id="Logo" xmlns="http://www.w3.org/2000/svg" xmlns:xlink="http://www.w3.org/1999/xlink" x="0px" y="0px"
	 width="116px" height="74px" viewBox="0 0 116 74" style="enable-background:new 0 0 116 74;" xml:space="preserve">
<style type="text/css">
	.st0{fill:#fff;}
</style>
<g id="ORT">
	<path class="st0" d="M37.658,52.61c0.214,0,0.382,0.024,0.499,0.065c0.076,0.027,0.142,0.078,0.189,0.149
		c0.049,0.071,0.075,0.19,0.075,0.357v1.515c0,0.392-0.052,0.671-0.15,0.83c-0.102,0.157-0.254,0.282-0.457,0.372
		c-0.202,0.09-0.449,0.137-0.738,0.137c-0.251,0-0.458-0.038-0.622-0.107c-0.168-0.07-0.285-0.162-0.358-0.269
		c-0.071-0.108-0.107-0.327-0.107-0.659v-1.818c0-0.212,0.016-0.345,0.049-0.399c0.033-0.052,0.087-0.094,0.166-0.125
		c0.078-0.029,0.221-0.048,0.427-0.048h0.141v-0.1h-2.759v0.1c0.226-0.001,0.38,0.017,0.464,0.048
		c0.086,0.031,0.145,0.072,0.178,0.125c0.034,0.052,0.052,0.186,0.052,0.399V55c0,0.309,0.07,0.556,0.211,0.736
		c0.142,0.183,0.384,0.332,0.728,0.449c0.252,0.086,0.609,0.128,1.069,0.128c0.554,0,0.989-0.081,1.31-0.244
		c0.32-0.161,0.521-0.342,0.604-0.531c0.083-0.195,0.125-0.51,0.125-0.947v-1.409c0-0.151,0.016-0.257,0.05-0.315
		c0.045-0.086,0.117-0.148,0.216-0.191c0.1-0.041,0.225-0.065,0.375-0.065h0.108v-0.1h-1.844L37.658,52.61L37.658,52.61z"/>
	<path class="st0" d="M43.986,53.684c-0.087-0.063-0.205-0.097-0.349-0.097c-0.172,0-0.35,0.045-0.533,0.132
		c-0.184,0.086-0.398,0.264-0.642,0.529l-0.002-0.582h-1.506v0.096c0.125,0.011,0.214,0.026,0.265,0.05
		c0.049,0.025,0.087,0.062,0.114,0.114c0.02,0.042,0.032,0.137,0.032,0.286v1.414c0,0.225-0.028,0.363-0.086,0.416
		c-0.057,0.055-0.166,0.084-0.325,0.092v0.098h1.992v-0.098c-0.144-0.005-0.25-0.018-0.313-0.042
		c-0.062-0.021-0.107-0.059-0.141-0.109c-0.017-0.029-0.027-0.095-0.027-0.198v-0.156l-0.002-0.591c0-0.213,0.042-0.411,0.125-0.586
		c0.055-0.117,0.137-0.205,0.244-0.268c0.066-0.041,0.141-0.06,0.214-0.06c0.036,0,0.064,0.006,0.09,0.017
		c0.018,0.007,0.08,0.041,0.182,0.103c0.102,0.062,0.222,0.096,0.361,0.096c0.12,0,0.223-0.035,0.308-0.102
		c0.086-0.069,0.129-0.164,0.129-0.287C44.117,53.834,44.075,53.746,43.986,53.684"/>
	<path class="st0" d="M49.082,55.675v-2.009h-1.501v0.096c0.163,0.017,0.27,0.045,0.322,0.095c0.051,0.048,0.079,0.171,0.079,0.369
		v1.368c-0.146,0.144-0.271,0.237-0.377,0.286c-0.073,0.034-0.161,0.051-0.252,0.051c-0.072,0-0.134-0.015-0.188-0.041
		c-0.055-0.027-0.091-0.066-0.119-0.119c-0.023-0.052-0.035-0.171-0.035-0.355v-1.749H45.51v0.096
		c0.163,0.017,0.27,0.045,0.322,0.095c0.051,0.048,0.076,0.171,0.076,0.369v1.015c0,0.296,0.029,0.503,0.084,0.622
		c0.054,0.118,0.162,0.223,0.323,0.311c0.16,0.089,0.344,0.132,0.55,0.132c0.217,0,0.414-0.03,0.588-0.097
		c0.175-0.066,0.351-0.175,0.527-0.318v0.342h1.5v-0.097c-0.162-0.011-0.269-0.043-0.321-0.093
		C49.107,55.996,49.082,55.872,49.082,55.675"/>
	<path class="st0" d="M54.224,56.062c-0.207-0.084-0.59-0.127-1.14-0.127l-0.685,0.008c-0.164,0-0.281-0.022-0.354-0.065
		c-0.072-0.041-0.108-0.095-0.108-0.162c0-0.074,0.041-0.138,0.121-0.191c0.081-0.056,0.179-0.082,0.298-0.082
		c0.299,0.011,0.455,0.015,0.472,0.015c0.193,0,0.417-0.037,0.668-0.113c0.248-0.077,0.449-0.183,0.596-0.315
		c0.144-0.134,0.216-0.293,0.216-0.478c0-0.107-0.031-0.211-0.095-0.308c-0.049-0.075-0.139-0.156-0.268-0.244h0.707v-0.301h-1.243
		c-0.261-0.074-0.514-0.111-0.758-0.111c-0.462,0-0.84,0.094-1.135,0.277c-0.293,0.183-0.441,0.399-0.441,0.651
		c0,0.191,0.08,0.361,0.238,0.508c0.156,0.146,0.412,0.263,0.768,0.354c-0.303,0.087-0.526,0.191-0.664,0.311
		c-0.141,0.118-0.21,0.238-0.21,0.366c0,0.209,0.171,0.37,0.513,0.485c-0.25,0.048-0.415,0.104-0.507,0.17s-0.137,0.143-0.137,0.228
		c0,0.089,0.061,0.171,0.177,0.252c0.119,0.078,0.314,0.141,0.59,0.187c0.275,0.044,0.577,0.066,0.91,0.066
		c0.442,0,0.833-0.045,1.173-0.133c0.224-0.061,0.405-0.154,0.54-0.282c0.137-0.128,0.206-0.269,0.206-0.425
		C54.67,56.36,54.521,56.18,54.224,56.062 M52.339,53.921c0.105-0.104,0.234-0.159,0.386-0.159c0.151,0,0.271,0.043,0.354,0.131
		c0.118,0.12,0.178,0.342,0.178,0.668c0,0.289-0.054,0.483-0.16,0.584c-0.105,0.101-0.236,0.149-0.393,0.149
		c-0.143,0-0.263-0.049-0.368-0.149c-0.104-0.101-0.154-0.29-0.154-0.561C52.183,54.25,52.233,54.03,52.339,53.921 M53.712,57.152
		c-0.211,0.069-0.497,0.101-0.865,0.101c-0.429,0-0.722-0.037-0.878-0.112c-0.154-0.076-0.231-0.161-0.231-0.255
		c0-0.099,0.073-0.177,0.223-0.232c0.089-0.032,0.265-0.048,0.535-0.048c0.622,0,1.005,0.012,1.148,0.029
		c0.145,0.021,0.254,0.059,0.324,0.116c0.039,0.03,0.058,0.067,0.058,0.114C54.026,56.988,53.92,57.085,53.712,57.152"/>
	<path class="st0" d="M59.625,55.675v-2.009h-1.499v0.096c0.162,0.017,0.269,0.045,0.321,0.095c0.053,0.048,0.079,0.171,0.079,0.369
		v1.368c-0.147,0.144-0.271,0.237-0.377,0.286c-0.074,0.034-0.159,0.051-0.253,0.051c-0.07,0-0.131-0.015-0.186-0.041
		c-0.052-0.027-0.091-0.066-0.117-0.119c-0.024-0.052-0.038-0.171-0.038-0.355v-1.749h-1.502v0.096
		c0.166,0.017,0.273,0.045,0.325,0.095c0.052,0.048,0.078,0.171,0.078,0.369v1.015c0,0.296,0.027,0.503,0.082,0.622
		c0.055,0.118,0.164,0.223,0.324,0.311c0.16,0.089,0.343,0.132,0.55,0.132c0.217,0,0.414-0.03,0.587-0.097
		c0.176-0.066,0.352-0.175,0.528-0.318v0.342h1.498v-0.097c-0.16-0.011-0.267-0.043-0.32-0.093
		C59.653,55.996,59.625,55.872,59.625,55.675"/>
	<path class="st0" d="M64.883,55.914c-0.032,0-0.064-0.009-0.09-0.021c-0.025-0.015-0.045-0.039-0.058-0.066
		c-0.012-0.032-0.018-0.106-0.018-0.221v-0.998c0-0.274-0.02-0.452-0.057-0.53c-0.06-0.12-0.193-0.23-0.394-0.333
		c-0.204-0.105-0.48-0.157-0.829-0.157c-0.291,0-0.568,0.034-0.836,0.097c-0.267,0.063-0.476,0.157-0.626,0.275
		c-0.15,0.118-0.224,0.247-0.224,0.38c0,0.091,0.056,0.173,0.167,0.242s0.25,0.104,0.416,0.104c0.154,0,0.281-0.031,0.376-0.095
		c0.095-0.062,0.145-0.139,0.145-0.227c0-0.074-0.051-0.15-0.151-0.23c-0.074-0.056-0.112-0.101-0.112-0.14
		c0-0.046,0.034-0.084,0.103-0.117c0.113-0.054,0.251-0.078,0.421-0.078c0.105,0,0.199,0.018,0.281,0.054
		c0.085,0.041,0.142,0.083,0.171,0.134c0.031,0.051,0.044,0.172,0.044,0.369v0.255c-0.808,0.262-1.334,0.468-1.575,0.625
		c-0.242,0.156-0.363,0.334-0.363,0.528c0,0.143,0.069,0.264,0.209,0.358c0.138,0.098,0.311,0.146,0.523,0.146
		c0.356,0,0.756-0.138,1.205-0.414c0.026,0.139,0.1,0.242,0.217,0.312c0.119,0.069,0.28,0.103,0.491,0.103
		c0.18,0,0.337-0.029,0.48-0.092c0.139-0.061,0.274-0.16,0.408-0.297l-0.119-0.064C65.021,55.88,64.953,55.914,64.883,55.914
		 M63.614,55.653c-0.171,0.102-0.324,0.15-0.452,0.15c-0.118,0-0.21-0.023-0.276-0.075c-0.085-0.062-0.129-0.135-0.129-0.22
		c0-0.102,0.051-0.201,0.153-0.299c0.154-0.148,0.39-0.286,0.704-0.417C63.614,54.792,63.614,55.653,63.614,55.653z"/>
	<path class="st0" d="M69.096,53.762c0.162,0.003,0.275,0.026,0.34,0.066c0.064,0.042,0.098,0.097,0.098,0.165
		c0,0.106-0.079,0.302-0.234,0.579l-0.428,0.78l-0.63-1.008c-0.133-0.208-0.198-0.346-0.198-0.416c0-0.046,0.025-0.082,0.079-0.115
		c0.052-0.029,0.142-0.049,0.271-0.052v-0.096h-1.959v0.096c0.119,0.026,0.223,0.071,0.308,0.137
		c0.086,0.069,0.217,0.247,0.395,0.535l1.191,1.907l-0.117,0.208c-0.14,0.275-0.263,0.449-0.367,0.525
		c-0.072,0.054-0.137,0.082-0.202,0.082c-0.04,0-0.069-0.013-0.088-0.03c-0.021-0.021-0.035-0.065-0.039-0.137
		c-0.003-0.12-0.043-0.209-0.122-0.271c-0.079-0.056-0.186-0.087-0.319-0.087c-0.137,0-0.249,0.033-0.344,0.105
		c-0.093,0.067-0.14,0.154-0.14,0.261c0,0.124,0.067,0.229,0.203,0.314c0.135,0.085,0.312,0.129,0.531,0.129
		c0.271,0,0.499-0.077,0.681-0.229c0.129-0.109,0.326-0.402,0.589-0.877l1.052-1.902c0.179-0.326,0.309-0.517,0.382-0.573
		c0.078-0.056,0.174-0.088,0.297-0.099v-0.096h-1.229v0.099H69.096z"/>
	<path class="st0" d="M9.372,46.751c0.226,0,0.404,0.02,0.527,0.063c0.08,0.027,0.146,0.076,0.199,0.146
		c0.052,0.071,0.078,0.192,0.078,0.356v1.491c0,0.392-0.052,0.662-0.158,0.819c-0.107,0.157-0.265,0.28-0.479,0.369
		c-0.212,0.09-0.47,0.134-0.772,0.134c-0.264,0-0.482-0.035-0.654-0.105c-0.173-0.068-0.299-0.157-0.372-0.264
		c-0.077-0.107-0.117-0.323-0.117-0.651v-1.793c0-0.21,0.019-0.344,0.053-0.396c0.036-0.053,0.094-0.094,0.173-0.125
		c0.082-0.029,0.232-0.043,0.448-0.043h0.144v-0.098h-2.88v0.098c0.234-0.002,0.396,0.011,0.483,0.043
		c0.09,0.031,0.148,0.072,0.186,0.125c0.036,0.053,0.055,0.184,0.055,0.396v1.793c0,0.303,0.072,0.547,0.22,0.726
		c0.15,0.181,0.404,0.328,0.761,0.444c0.265,0.082,0.638,0.125,1.122,0.125c0.58,0,1.034-0.079,1.369-0.241
		c0.334-0.161,0.545-0.334,0.633-0.524c0.086-0.189,0.128-0.502,0.128-0.934v-1.389c0-0.15,0.018-0.255,0.053-0.314
		c0.048-0.085,0.123-0.146,0.228-0.188c0.106-0.043,0.237-0.063,0.395-0.063h0.115v-0.098H9.37v0.098H9.372z"/>
	<path class="st0" d="M16.392,46.751c0.312-0.005,0.533,0.046,0.666,0.149c0.095,0.081,0.144,0.23,0.144,0.449v1.575l-2.753-2.271
		h-1.985v0.098c0.172,0.004,0.302,0.02,0.393,0.052c0.091,0.031,0.195,0.097,0.313,0.196l0.123,0.098v2.583
		c0,0.197-0.062,0.338-0.182,0.421c-0.122,0.081-0.334,0.121-0.64,0.123v0.1h1.979v-0.1h-0.134c-0.188,0-0.357-0.036-0.504-0.11
		c-0.146-0.074-0.219-0.221-0.219-0.434v-2.333l3.775,3.057h0.139V47.35c0-0.173,0.022-0.296,0.067-0.366
		c0.047-0.073,0.112-0.125,0.192-0.154c0.082-0.032,0.242-0.059,0.478-0.078v-0.098h-1.852V46.751z"/>
	<path class="st0" d="M19.51,46.751h0.184c0.161,0,0.283,0.017,0.375,0.052c0.091,0.036,0.154,0.077,0.183,0.124
		c0.031,0.046,0.047,0.165,0.047,0.354v2.413c0,0.185-0.016,0.298-0.047,0.342c-0.038,0.062-0.093,0.107-0.163,0.133
		c-0.1,0.037-0.23,0.055-0.395,0.055H19.51v0.1h2.921v-0.1h-0.186c-0.156,0-0.281-0.017-0.372-0.052
		c-0.092-0.035-0.153-0.076-0.186-0.123c-0.031-0.048-0.047-0.166-0.047-0.354v-2.413c0-0.185,0.016-0.3,0.045-0.343
		c0.042-0.063,0.099-0.104,0.17-0.131c0.097-0.04,0.23-0.057,0.39-0.057h0.186v-0.098H19.51V46.751z"/>
	<path class="st0" d="M27.674,46.751c0.195,0,0.351,0.017,0.47,0.046c0.087,0.022,0.15,0.054,0.193,0.098
		c0.046,0.038,0.067,0.087,0.067,0.142c0,0.047-0.016,0.106-0.045,0.172c-0.03,0.066-0.111,0.197-0.246,0.394l-1.103,1.625
		l-1.194-1.823c-0.125-0.194-0.199-0.312-0.222-0.355c-0.022-0.046-0.031-0.084-0.031-0.118c0-0.052,0.029-0.094,0.094-0.12
		c0.088-0.039,0.254-0.059,0.494-0.059h0.091v-0.098H23.56v0.098c0.216,0.017,0.364,0.054,0.444,0.115
		c0.078,0.063,0.232,0.27,0.465,0.624l1.91,2.913h0.144l1.924-2.799c0.231-0.339,0.4-0.55,0.516-0.641
		c0.161-0.121,0.342-0.191,0.544-0.213v-0.098h-1.833V46.751z"/>
	<path class="st0" d="M31.389,50.036c-0.042,0.062-0.094,0.107-0.167,0.133c-0.1,0.037-0.232,0.055-0.392,0.055h-0.187v0.1h4.839
		l0.251-1.168h-0.152c-0.137,0.325-0.365,0.566-0.681,0.724c-0.313,0.158-0.735,0.236-1.258,0.236h-0.336
		c-0.157,0-0.274-0.014-0.347-0.042c-0.07-0.03-0.119-0.064-0.146-0.109c-0.025-0.048-0.039-0.169-0.039-0.372v-1.03
		c0.267,0,0.474,0.021,0.614,0.068c0.143,0.048,0.263,0.138,0.371,0.27c0.105,0.133,0.178,0.306,0.208,0.514h0.161V47.49h-0.161
		c-0.042,0.284-0.146,0.502-0.305,0.646c-0.163,0.149-0.42,0.222-0.775,0.222h-0.113v-1.494h0.586c0.421,0,0.71,0.017,0.864,0.047
		c0.264,0.056,0.466,0.142,0.614,0.257c0.142,0.114,0.253,0.306,0.333,0.571h0.16v-1.085h-4.687v0.098h0.187
		c0.179,0,0.324,0.024,0.43,0.076c0.074,0.036,0.125,0.082,0.152,0.146c0.015,0.04,0.021,0.141,0.021,0.309v2.414
		C31.433,49.879,31.417,49.992,31.389,50.036"/>
	<path class="st0" d="M39.311,50.055c-0.037-0.051-0.055-0.176-0.055-0.375v-1.031h0.368l1.796,1.675h1.761v-0.103
		c-0.15-0.006-0.282-0.037-0.395-0.092c-0.076-0.039-0.199-0.141-0.377-0.298l-1.336-1.245c0.339-0.056,0.603-0.139,0.792-0.25
		c0.296-0.176,0.445-0.4,0.445-0.671c0-0.224-0.1-0.414-0.299-0.581c-0.197-0.162-0.452-0.276-0.765-0.338
		c-0.312-0.062-0.808-0.093-1.484-0.093h-2.598v0.098c0.256,0,0.432,0.017,0.523,0.046c0.095,0.03,0.16,0.069,0.199,0.122
		c0.035,0.053,0.055,0.178,0.055,0.374v2.387c0,0.199-0.02,0.324-0.055,0.375c-0.039,0.051-0.104,0.092-0.195,0.122
		c-0.092,0.031-0.268,0.047-0.527,0.047v0.1h2.869v-0.1c-0.256,0-0.432-0.012-0.527-0.044
		C39.415,50.147,39.351,50.107,39.311,50.055 M39.256,46.858h0.439c0.443,0,0.763,0.067,0.962,0.199
		c0.199,0.133,0.299,0.337,0.299,0.616c0,0.191-0.055,0.348-0.162,0.467c-0.109,0.119-0.257,0.203-0.447,0.247
		c-0.191,0.048-0.476,0.068-0.858,0.068h-0.233V46.858z"/>
	<path class="st0" d="M46.4,50.403c0.564,0,1.025-0.109,1.392-0.33c0.365-0.221,0.548-0.483,0.548-0.789
		c0-0.242-0.113-0.455-0.339-0.642c-0.228-0.188-0.667-0.387-1.323-0.598c-0.469-0.151-0.766-0.256-0.894-0.314
		c-0.177-0.084-0.306-0.168-0.384-0.253c-0.059-0.063-0.087-0.136-0.087-0.216c0-0.128,0.082-0.239,0.246-0.34
		c0.163-0.097,0.386-0.147,0.667-0.147c0.363,0,0.703,0.093,1.013,0.279c0.314,0.188,0.512,0.434,0.59,0.74h0.167l-0.048-1.225
		h-0.123c-0.038,0.112-0.076,0.181-0.117,0.211c-0.041,0.028-0.098,0.042-0.17,0.042c-0.074,0-0.203-0.029-0.389-0.088
		c-0.185-0.059-0.343-0.098-0.473-0.121c-0.17-0.029-0.345-0.044-0.526-0.044c-0.498,0-0.909,0.103-1.237,0.31
		c-0.326,0.204-0.49,0.454-0.49,0.745c0,0.172,0.06,0.327,0.177,0.47c0.121,0.144,0.294,0.271,0.514,0.389
		c0.224,0.114,0.589,0.254,1.098,0.418c0.363,0.117,0.617,0.211,0.761,0.285c0.142,0.072,0.25,0.15,0.317,0.23
		c0.071,0.081,0.108,0.163,0.108,0.252c0,0.146-0.094,0.274-0.277,0.383c-0.184,0.11-0.427,0.166-0.74,0.166
		c-0.398,0-0.773-0.104-1.118-0.31c-0.346-0.202-0.58-0.501-0.701-0.89h-0.146v1.385h0.146c0.048-0.075,0.113-0.132,0.193-0.167
		s0.156-0.055,0.228-0.055c0.084,0,0.193,0.02,0.324,0.053c0.24,0.066,0.436,0.109,0.593,0.135
		C46.057,50.393,46.225,50.403,46.4,50.403"/>
	<path class="st0" d="M50.464,50.036c-0.04,0.062-0.097,0.107-0.166,0.133c-0.099,0.037-0.231,0.055-0.393,0.055h-0.187v0.1h2.921
		v-0.1h-0.186c-0.155,0-0.279-0.017-0.373-0.052c-0.089-0.035-0.151-0.076-0.185-0.122c-0.029-0.049-0.047-0.167-0.047-0.354v-2.414
		c0-0.185,0.016-0.3,0.045-0.343c0.042-0.063,0.099-0.104,0.171-0.131c0.099-0.04,0.228-0.057,0.39-0.057h0.186v-0.098h-2.921v0.098
		h0.187c0.157,0,0.281,0.017,0.373,0.052c0.091,0.036,0.155,0.077,0.186,0.124c0.029,0.046,0.044,0.165,0.044,0.354v2.414
		C50.508,49.879,50.493,49.992,50.464,50.036"/>
	<path class="st0" d="M54.565,50.036c-0.041,0.06-0.105,0.104-0.191,0.139c-0.088,0.031-0.212,0.049-0.376,0.049h-0.186v0.1h2.507
		c0.361,0,0.626-0.014,0.795-0.035c0.38-0.046,0.702-0.113,0.964-0.198c0.263-0.086,0.495-0.199,0.696-0.339
		c0.199-0.146,0.365-0.322,0.492-0.539c0.126-0.219,0.189-0.457,0.189-0.714c0-0.374-0.129-0.707-0.384-1.004
		c-0.257-0.294-0.636-0.515-1.136-0.66c-0.407-0.12-0.944-0.181-1.616-0.181h-2.507v0.098h0.186c0.157,0,0.283,0.017,0.376,0.052
		c0.091,0.036,0.152,0.077,0.184,0.124c0.031,0.046,0.045,0.165,0.045,0.354v2.414C54.602,49.886,54.59,50.001,54.565,50.036
		 M55.943,46.858c0.463-0.002,0.794,0.025,0.991,0.082c0.283,0.077,0.514,0.229,0.693,0.449c0.229,0.28,0.341,0.655,0.341,1.126
		c0,0.583-0.166,1.014-0.497,1.291c-0.242,0.208-0.598,0.309-1.058,0.309c-0.143,0-0.25-0.011-0.324-0.04
		c-0.053-0.018-0.092-0.044-0.113-0.077c-0.022-0.034-0.033-0.129-0.033-0.278V46.858z"/>
	<path class="st0" d="M64.558,50.164c-0.087,0.042-0.24,0.059-0.457,0.059h-0.112v0.099h2.705v-0.099
		c-0.169-0.006-0.301-0.04-0.396-0.097c-0.125-0.074-0.281-0.255-0.475-0.544l-2.016-3.007h-0.075l-2.002,2.926
		c-0.188,0.281-0.348,0.47-0.476,0.559c-0.131,0.09-0.296,0.146-0.497,0.163v0.099h1.86v-0.099
		c-0.292-0.012-0.472-0.033-0.549-0.063c-0.127-0.052-0.191-0.128-0.191-0.231c0-0.077,0.04-0.176,0.117-0.296l0.244-0.357h1.957
		l0.303,0.457c0.08,0.12,0.122,0.188,0.125,0.204c0.018,0.035,0.025,0.071,0.025,0.102C64.648,50.094,64.62,50.137,64.558,50.164
		 M62.377,49.075l0.855-1.257l0.833,1.257H62.377z"/>
	<path class="st0" d="M71.907,46.834c-0.408-0.12-0.948-0.181-1.615-0.181h-2.51v0.098h0.187c0.156,0,0.282,0.017,0.375,0.052
		c0.092,0.036,0.154,0.077,0.184,0.124c0.031,0.046,0.045,0.165,0.045,0.354v2.414c0,0.189-0.012,0.306-0.036,0.341
		c-0.043,0.06-0.105,0.104-0.193,0.139c-0.086,0.031-0.21,0.049-0.375,0.049h-0.187v0.1h2.51c0.359,0,0.624-0.014,0.793-0.035
		c0.381-0.046,0.702-0.113,0.963-0.198c0.264-0.086,0.496-0.199,0.697-0.339c0.202-0.146,0.365-0.322,0.492-0.539
		c0.127-0.219,0.19-0.457,0.19-0.714c0-0.374-0.129-0.707-0.387-1.004C72.781,47.2,72.405,46.979,71.907,46.834 M71.441,49.807
		c-0.242,0.208-0.595,0.309-1.057,0.309c-0.141,0-0.249-0.012-0.323-0.04c-0.054-0.018-0.091-0.044-0.113-0.077
		c-0.023-0.034-0.033-0.129-0.033-0.278V46.86c0.461-0.002,0.792,0.025,0.991,0.082c0.282,0.077,0.513,0.229,0.694,0.449
		c0.226,0.28,0.338,0.655,0.338,1.125C71.938,49.099,71.773,49.529,71.441,49.807"/>
	<path class="st0" d="M84.56,47.111c-0.555-0.36-1.279-0.532-2.167-0.511c-0.823-0.021-1.521,0.15-2.084,0.513
		c-0.563,0.364-0.849,0.818-0.849,1.362c0,0.484,0.219,0.903,0.654,1.258c0.548,0.446,1.326,0.67,2.33,0.67
		c1.003,0,1.779-0.233,2.329-0.702c0.416-0.354,0.623-0.764,0.623-1.229C85.396,47.928,85.119,47.476,84.56,47.111 M83.706,49.512
		c-0.135,0.253-0.322,0.437-0.563,0.551c-0.19,0.092-0.426,0.137-0.709,0.137c-0.421,0-0.75-0.105-0.982-0.314
		c-0.335-0.298-0.503-0.759-0.503-1.387c0-0.525,0.109-0.928,0.326-1.21c0.266-0.34,0.653-0.513,1.167-0.513
		c0.277,0,0.522,0.05,0.738,0.15c0.211,0.099,0.386,0.269,0.523,0.509c0.141,0.239,0.207,0.601,0.207,1.086
		C83.909,48.929,83.843,49.259,83.706,49.512"/>
	<path class="st0" d="M91.996,49.831l-1.337-1.245c0.34-0.056,0.605-0.139,0.794-0.25c0.295-0.176,0.443-0.399,0.443-0.671
		c0-0.223-0.1-0.414-0.297-0.581c-0.197-0.162-0.452-0.276-0.767-0.338c-0.314-0.062-0.808-0.093-1.485-0.093H86.75v0.098
		c0.255,0,0.431,0.017,0.524,0.046c0.094,0.03,0.161,0.069,0.197,0.122c0.037,0.053,0.054,0.178,0.054,0.374v2.387
		c0,0.199-0.018,0.324-0.054,0.375c-0.037,0.051-0.102,0.092-0.195,0.122c-0.092,0.032-0.267,0.047-0.527,0.047v0.1h2.869v-0.1
		c-0.256,0-0.432-0.012-0.525-0.044c-0.094-0.032-0.16-0.072-0.197-0.125c-0.037-0.051-0.053-0.176-0.053-0.375v-1.031h0.364
		l1.798,1.675h1.758v-0.103c-0.148-0.006-0.278-0.037-0.392-0.092C92.298,50.09,92.173,49.989,91.996,49.831 M90.38,48.141
		c-0.11,0.119-0.258,0.203-0.448,0.247c-0.188,0.048-0.476,0.068-0.855,0.068h-0.233v-1.598h0.438c0.441,0,0.761,0.067,0.961,0.2
		c0.2,0.132,0.299,0.336,0.299,0.615C90.543,47.865,90.487,48.021,90.38,48.141"/>
	<path class="st0" d="M93.575,46.653v0.995h0.157c0.063-0.272,0.213-0.481,0.455-0.628c0.17-0.104,0.443-0.157,0.823-0.157h0.396
		v2.832c0,0.184-0.013,0.297-0.046,0.341c-0.041,0.062-0.096,0.107-0.167,0.133c-0.097,0.037-0.229,0.055-0.39,0.055h-0.188v0.1
		h2.923v-0.1h-0.185c-0.158,0-0.283-0.017-0.373-0.052c-0.093-0.035-0.157-0.076-0.186-0.123c-0.031-0.048-0.048-0.166-0.048-0.354
		v-2.832h0.414c0.262,0,0.445,0.017,0.55,0.047c0.188,0.062,0.335,0.141,0.443,0.241c0.107,0.1,0.205,0.265,0.295,0.497h0.147
		v-0.995C98.595,46.653,93.575,46.653,93.575,46.653z"/>
	<path class="st0" d="M84.022,16.688h-20.01v1.717c-1.635-1.632-5.66-1.699-5.66-1.699H47.439v5.319
		c-2.993-3.881-6.887-5.465-11.973-5.465c-7.687,0-14.429,6.258-14.429,14.022s6.641,13.554,14.328,13.554
		c5.085,0,9.274-2.142,12.115-5.335v5.13h7.969v-8.844l6.745,8.844h15.887v-20.29h5.941C84.022,23.641,84.022,16.688,84.022,16.688z
		 M34.343,23.418c-0.009,0.014-0.017,0.026-0.026,0.04c-0.232,0.361-0.584,0.899-0.845,1.665c-0.342-0.042-0.697-0.091-1.058-0.149
		C33.34,23.848,34.047,23.515,34.343,23.418 M32.713,30.682c0.011,0.777,0.06,1.518,0.148,2.202
		c-0.617,0.082-1.235,0.186-1.833,0.314c-0.245-0.77-0.382-1.616-0.404-2.516C30.624,30.682,32.713,30.682,32.713,30.682z
		 M30.625,30.154c0.02-0.82,0.135-1.606,0.336-2.333c0.603,0.143,1.229,0.259,1.866,0.349c-0.071,0.631-0.11,1.299-0.116,1.984
		H30.625z M32.937,33.407c0.11,0.673,0.258,1.297,0.441,1.856c-0.384,0.045-0.786,0.104-1.193,0.17
		c-0.4-0.523-0.728-1.104-0.977-1.734C31.773,33.581,32.352,33.483,32.937,33.407 M32.891,27.645
		c-0.601-0.085-1.196-0.195-1.772-0.332c0.232-0.667,0.546-1.294,0.937-1.861c0.432,0.072,0.856,0.133,1.255,0.183
		C33.132,26.262,32.991,26.935,32.891,27.645 M32.878,23.774c-0.323,0.28-0.715,0.639-1.063,1.096
		c-0.239-0.042-0.476-0.086-0.702-0.133C31.601,24.371,32.213,23.964,32.878,23.774 M30.386,25.35
		c0.063-0.061,0.13-0.122,0.198-0.182c0.166,0.038,0.48,0.104,0.898,0.182c-0.365,0.566-0.663,1.182-0.887,1.835
		c-0.601-0.16-1.055-0.315-1.35-0.421C29.563,26.248,29.946,25.773,30.386,25.35 M28.982,27.231c0.264,0.1,0.763,0.273,1.46,0.458
		c-0.214,0.77-0.331,1.599-0.351,2.465h-1.858C28.26,29.126,28.512,28.145,28.982,27.231 M28.238,30.682h1.852
		c0.022,0.94,0.162,1.826,0.416,2.636c-0.685,0.165-1.169,0.327-1.385,0.399C28.595,32.793,28.293,31.746,28.238,30.682
		 M30.386,35.336c-0.366-0.348-0.694-0.736-0.976-1.156c0.241-0.08,0.677-0.217,1.271-0.358c0.237,0.616,0.544,1.191,0.917,1.713
		c-0.353,0.063-0.629,0.121-0.81,0.16C30.638,35.569,30.506,35.453,30.386,35.336 M31.354,36.12c0.168-0.032,0.373-0.07,0.61-0.111
		c0.274,0.325,0.571,0.626,0.892,0.896C32.329,36.702,31.826,36.438,31.354,36.12 M34.204,37.182
		c-0.138-0.077-0.405-0.229-0.605-0.371c-0.363-0.26-0.704-0.565-1.017-0.904c0.347-0.053,0.67-0.098,0.98-0.133
		c0.289,0.723,0.597,1.203,0.839,1.503C34.327,37.244,34.251,37.207,34.204,37.182 M35.336,37.39
		c-0.192-0.078-0.699-0.464-1.223-1.674c0.437-0.04,0.847-0.062,1.223-0.068V37.39z M35.336,35.117
		c-0.429,0.008-0.905,0.037-1.42,0.085c-0.19-0.548-0.342-1.173-0.451-1.854c0.624-0.064,1.253-0.104,1.871-0.113V35.117z
		 M35.336,32.707c-0.646,0.011-1.302,0.051-1.948,0.117c-0.082-0.66-0.129-1.38-0.138-2.142h2.086V32.707z M35.336,30.154h-2.088
		c0.005-0.661,0.043-1.308,0.111-1.918c0.653,0.072,1.319,0.115,1.976,0.125L35.336,30.154L35.336,30.154z M35.336,27.833
		c-0.636-0.009-1.276-0.052-1.911-0.122c0.104-0.71,0.249-1.388,0.436-2.011c0.535,0.052,1.03,0.083,1.475,0.089V27.833z
		 M35.336,25.26c-0.398-0.009-0.837-0.034-1.305-0.079c0.438-1.164,0.944-1.724,1.305-1.875V25.26z M40.808,25.35
		c0.439,0.423,0.824,0.898,1.139,1.413c-0.293,0.107-0.748,0.262-1.35,0.421c-0.223-0.652-0.521-1.269-0.886-1.835
		c0.417-0.078,0.732-0.144,0.9-0.182C40.677,25.229,40.743,25.289,40.808,25.35 M39.984,33.7c-0.248,0.63-0.579,1.211-0.978,1.734
		c-0.406-0.067-0.806-0.125-1.192-0.17c0.186-0.56,0.334-1.183,0.441-1.856C38.841,33.483,39.422,33.581,39.984,33.7 M37.881,25.634
		c0.401-0.05,0.825-0.11,1.257-0.183c0.389,0.567,0.704,1.194,0.938,1.861c-0.578,0.136-1.173,0.247-1.772,0.332
		C38.203,26.935,38.062,26.262,37.881,25.634 M38.332,32.883c0.085-0.684,0.136-1.424,0.148-2.202h2.087
		c-0.022,0.9-0.155,1.746-0.401,2.516C39.566,33.069,38.95,32.965,38.332,32.883 M38.482,30.154
		c-0.006-0.685-0.045-1.353-0.113-1.984c0.634-0.09,1.26-0.206,1.866-0.349c0.201,0.727,0.314,1.513,0.333,2.333H38.482z
		 M40.079,24.737c-0.224,0.047-0.462,0.091-0.702,0.133c-0.347-0.458-0.74-0.816-1.061-1.096
		C38.979,23.964,39.592,24.371,40.079,24.737 M38.78,24.974c-0.363,0.057-0.717,0.107-1.061,0.149
		c-0.259-0.766-0.61-1.304-0.844-1.665c-0.008-0.014-0.016-0.026-0.025-0.04C37.145,23.515,37.854,23.848,38.78,24.974
		 M35.856,23.307c0.361,0.151,0.871,0.711,1.308,1.875c-0.471,0.045-0.908,0.07-1.308,0.079V23.307z M35.856,25.789
		c0.446-0.005,0.941-0.037,1.476-0.089c0.188,0.623,0.333,1.301,0.435,2.011c-0.633,0.07-1.273,0.112-1.911,0.122
		C35.856,27.833,35.856,25.789,35.856,25.789z M35.856,28.362c0.66-0.01,1.324-0.053,1.977-0.125
		c0.068,0.61,0.105,1.256,0.111,1.918h-2.088V28.362z M35.856,30.682h2.087c-0.01,0.762-0.058,1.482-0.139,2.142
		c-0.646-0.066-1.302-0.105-1.948-0.117C35.856,32.707,35.856,30.682,35.856,30.682z M35.856,33.236
		c0.619,0.009,1.248,0.048,1.875,0.113c-0.112,0.681-0.261,1.306-0.453,1.854c-0.514-0.048-0.991-0.077-1.421-0.085L35.856,33.236
		L35.856,33.236z M35.856,37.39v-1.742c0.377,0.006,0.787,0.028,1.224,0.068C36.555,36.926,36.049,37.312,35.856,37.39
		 M36.989,37.182c-0.045,0.025-0.123,0.063-0.198,0.096c0.242-0.301,0.551-0.781,0.84-1.503c0.31,0.035,0.632,0.081,0.979,0.133
		c-0.312,0.339-0.653,0.644-1.015,0.904C37.394,36.953,37.127,37.104,36.989,37.182 M38.337,36.904
		c0.32-0.269,0.617-0.57,0.893-0.896c0.236,0.042,0.44,0.08,0.609,0.111C39.367,36.438,38.864,36.702,38.337,36.904 M40.81,35.336
		c-0.121,0.117-0.254,0.233-0.407,0.359c-0.18-0.04-0.456-0.097-0.808-0.16c0.371-0.522,0.68-1.097,0.918-1.713
		c0.595,0.142,1.03,0.278,1.271,0.358C41.5,34.6,41.172,34.988,40.81,35.336 M42.072,33.717c-0.214-0.072-0.701-0.233-1.383-0.399
		c0.251-0.81,0.393-1.696,0.416-2.636h1.85C42.901,31.746,42.597,32.793,42.072,33.717 M41.104,30.154
		c-0.02-0.866-0.139-1.694-0.354-2.465c0.696-0.185,1.196-0.358,1.462-0.458c0.468,0.913,0.72,1.895,0.75,2.923H41.104z
		 M57.672,29.167h-2.165v-5.6h2.229c0,0,2.871-0.098,2.838,2.671C60.539,29.33,57.672,29.167,57.672,29.167 M69.878,42.604
		l-6.65-8.615c5.558-3.23,5.556-8.246,4.908-10.448h1.742C69.878,23.541,69.878,42.604,69.878,42.604z"/>
</g>
</svg>
